<mxfile host="app.diagrams.net" modified="2023-04-20T01:56:58.796Z" agent="Mozilla/5.0 (Windows NT 10.0; Win64; x64) AppleWebKit/537.36 (KHTML, like Gecko) Chrome/112.0.0.0 Safari/537.36 Edg/112.0.1722.48" etag="v_8AyjIWIVL7fzWjtDa6" version="21.1.8" type="github" pages="3">
  <diagram name="旧平台" id="旧平台">
    <mxGraphModel dx="1050" dy="581" grid="1" gridSize="10" guides="1" tooltips="1" connect="1" arrows="1" fold="1" page="1" pageScale="1" pageWidth="827" pageHeight="1169" math="0" shadow="0">
      <root>
        <mxCell id="0" />
        <mxCell id="1" value="连接线" parent="0" />
        <mxCell id="2" value="&lt;font style=&quot;font-size:11px;font-family:SimSun;color:#ffffff;direction:ltr;letter-spacing:0px;line-height:120%;opacity:1&quot;&gt;算法（kubeflow）&lt;br/&gt;&lt;/font&gt;" style="verticalAlign=top;align=center;vsdxID=50;fillColor=#5b9bd5;gradientColor=none;shape=stencil(nZBLDoAgDERP0z3SIyjew0SURgSD+Lu9kMZoXLhwN9O+tukAlrNpJg1SzDH4QW/URgNYgZTkjA4UkwJUgGXng+6DX1zLfmoymdXo17xh5zmRJ6Q42BWCfc2oJfdAr+Yv+AP9Cb7OJ3H/2JG1HNGz/84klThPVCc=);strokeColor=#ffffff;labelBackgroundColor=none;rounded=0;html=1;whiteSpace=wrap;" parent="1" vertex="1">
          <mxGeometry x="64" y="196" width="224" height="160" as="geometry" />
        </mxCell>
        <mxCell id="3" value="&lt;font style=&quot;font-size:11px;font-family:SimSun;color:#ffffff;direction:ltr;letter-spacing:0px;line-height:120%;opacity:1&quot;&gt;云端管理应用（kubesphere）&lt;br/&gt;&lt;/font&gt;" style="verticalAlign=top;align=center;vsdxID=1;fillColor=#5b9bd5;gradientColor=none;shape=stencil(nZBLDoAgDERP0z3SIyjew0SURgSD+Lu9kMZoXLhwN9O+tukAlrNpJg1SzDH4QW/URgNYgZTkjA4UkwJUgGXng+6DX1zLfmoymdXo17xh5zmRJ6Q42BWCfc2oJfdAr+Yv+AP9Cb7OJ3H/2JG1HNGz/84klThPVCc=);strokeColor=#ffffff;labelBackgroundColor=none;rounded=0;html=1;whiteSpace=wrap;" parent="1" vertex="1">
          <mxGeometry x="324" y="388" width="224" height="120" as="geometry" />
        </mxCell>
        <mxCell id="4" value="&lt;font style=&quot;font-size:11px;font-family:SimSun;color:#ffffff;direction:ltr;letter-spacing:0px;line-height:120%;opacity:1&quot;&gt;车机&lt;br/&gt;&lt;/font&gt;" style="verticalAlign=top;align=center;vsdxID=4;fillColor=#5b9bd5;gradientColor=none;shape=stencil(nZBLDoAgDERP0z3SIyjew0SURgSD+Lu9kMZoXLhwN9O+tukAlrNpJg1SzDH4QW/URgNYgZTkjA4UkwJUgGXng+6DX1zLfmoymdXo17xh5zmRJ6Q42BWCfc2oJfdAr+Yv+AP9Cb7OJ3H/2JG1HNGz/84klThPVCc=);strokeColor=#ffffff;labelBackgroundColor=none;rounded=0;html=1;whiteSpace=wrap;" parent="1" vertex="1">
          <mxGeometry x="592" y="388" width="192" height="128" as="geometry" />
        </mxCell>
        <mxCell id="fI2d8DyB40QvaeQUfQFj-39" value="读取" style="edgeStyle=none;rounded=0;orthogonalLoop=1;jettySize=auto;html=1;fontSize=8;fontColor=#6CA43E;strokeColor=#6CA43E;" parent="1" source="5" edge="1">
          <mxGeometry relative="1" as="geometry">
            <mxPoint x="436" y="390" as="targetPoint" />
          </mxGeometry>
        </mxCell>
        <mxCell id="5" value="&lt;font style=&quot;font-size:11px;font-family:SimSun;color:#ffffff;direction:ltr;letter-spacing:0px;line-height:120%;opacity:1&quot;&gt;文件存储（minio）&lt;br/&gt;&lt;/font&gt;" style="verticalAlign=top;align=center;vsdxID=5;fillColor=#5b9bd5;gradientColor=none;shape=stencil(nZBLDoAgDERP0z3SIyjew0SURgSD+Lu9kMZoXLhwN9O+tukAlrNpJg1SzDH4QW/URgNYgZTkjA4UkwJUgGXng+6DX1zLfmoymdXo17xh5zmRJ6Q42BWCfc2oJfdAr+Yv+AP9Cb7OJ3H/2JG1HNGz/84klThPVCc=);strokeColor=#ffffff;labelBackgroundColor=none;rounded=0;html=1;whiteSpace=wrap;" parent="1" vertex="1">
          <mxGeometry x="332" y="212" width="208" height="128" as="geometry" />
        </mxCell>
        <mxCell id="6" value="&lt;font style=&quot;font-size:11px;font-family:SimSun;color:#ffffff;direction:ltr;letter-spacing:0px;line-height:120%;opacity:1&quot;&gt;调度系统&lt;br/&gt;&lt;/font&gt;" style="verticalAlign=top;align=center;vsdxID=6;fillColor=#FFCE9F;gradientColor=none;shape=stencil(nZBLDoAgDERP0z3SIyjew0SURgSD+Lu9kMZoXLhwN9O+tukAlrNpJg1SzDH4QW/URgNYgZTkjA4UkwJUgGXng+6DX1zLfmoymdXo17xh5zmRJ6Q42BWCfc2oJfdAr+Yv+AP9Cb7OJ3H/2JG1HNGz/84klThPVCc=);strokeColor=#ffffff;labelBackgroundColor=none;rounded=0;html=1;whiteSpace=wrap;" parent="1" vertex="1">
          <mxGeometry x="368" y="112" width="96" height="56" as="geometry" />
        </mxCell>
        <mxCell id="7" value="&lt;font style=&quot;font-size:11px;font-family:SimSun;color:#ffffff;direction:ltr;letter-spacing:0px;line-height:120%;opacity:1&quot;&gt;数据自动打标签&lt;br/&gt;&lt;/font&gt;" style="verticalAlign=middle;align=center;vsdxID=7;fillColor=#5b9bd5;gradientColor=none;shape=stencil(nZBLDoAgDERP0z3SIyjew0SURgSD+Lu9kMZoXLhwN9O+tukAlrNpJg1SzDH4QW/URgNYgZTkjA4UkwJUgGXng+6DX1zLfmoymdXo17xh5zmRJ6Q42BWCfc2oJfdAr+Yv+AP9Cb7OJ3H/2JG1HNGz/84klThPVCc=);strokeColor=#ffffff;labelBackgroundColor=none;rounded=0;html=1;whiteSpace=wrap;" parent="1" vertex="1">
          <mxGeometry x="72" y="232" width="96" height="18" as="geometry" />
        </mxCell>
        <mxCell id="8" value="&lt;font style=&quot;font-size:11px;font-family:SimSun;color:#ffffff;direction:ltr;letter-spacing:0px;line-height:120%;opacity:1&quot;&gt;模型训练&lt;br/&gt;&lt;/font&gt;" style="verticalAlign=middle;align=center;vsdxID=8;fillColor=#5b9bd5;gradientColor=none;shape=stencil(nZBLDoAgDERP0z3SIyjew0SURgSD+Lu9kMZoXLhwN9O+tukAlrNpJg1SzDH4QW/URgNYgZTkjA4UkwJUgGXng+6DX1zLfmoymdXo17xh5zmRJ6Q42BWCfc2oJfdAr+Yv+AP9Cb7OJ3H/2JG1HNGz/84klThPVCc=);strokeColor=#ffffff;labelBackgroundColor=none;rounded=0;html=1;whiteSpace=wrap;" parent="1" vertex="1">
          <mxGeometry x="85" y="262" width="70" height="18" as="geometry" />
        </mxCell>
        <mxCell id="9" value="&lt;font style=&quot;font-size:11px;font-family:SimSun;color:#ffffff;direction:ltr;letter-spacing:0px;line-height:120%;opacity:1&quot;&gt;生成&lt;/font&gt;&lt;font style=&quot;font-size:11px;font-family:Themed;color:#ffffff;direction:ltr;letter-spacing:0px;line-height:120%;opacity:1&quot;&gt;数据宽表&lt;br/&gt;&lt;/font&gt;" style="verticalAlign=middle;align=center;vsdxID=10;fillColor=#5b9bd5;gradientColor=none;shape=stencil(nZBLDoAgDERP0z3SIyjew0SURgSD+Lu9kMZoXLhwN9O+tukAlrNpJg1SzDH4QW/URgNYgZTkjA4UkwJUgGXng+6DX1zLfmoymdXo17xh5zmRJ6Q42BWCfc2oJfdAr+Yv+AP9Cb7OJ3H/2JG1HNGz/84klThPVCc=);strokeColor=#ffffff;labelBackgroundColor=none;rounded=0;html=1;whiteSpace=wrap;" parent="1" vertex="1">
          <mxGeometry x="376" y="144" width="80" height="18" as="geometry" />
        </mxCell>
        <mxCell id="10" value="&lt;font style=&quot;font-size:11px;font-family:SimSun;color:#ffffff;direction:ltr;letter-spacing:0px;line-height:120%;opacity:1&quot;&gt;模型指标评估&lt;br/&gt;&lt;/font&gt;" style="verticalAlign=middle;align=center;vsdxID=13;fillColor=#5b9bd5;gradientColor=none;shape=stencil(nZBLDoAgDERP0z3SIyjew0SURgSD+Lu9kMZoXLhwN9O+tukAlrNpJg1SzDH4QW/URgNYgZTkjA4UkwJUgGXng+6DX1zLfmoymdXo17xh5zmRJ6Q42BWCfc2oJfdAr+Yv+AP9Cb7OJ3H/2JG1HNGz/84klThPVCc=);strokeColor=#ffffff;labelBackgroundColor=none;rounded=0;html=1;whiteSpace=wrap;" parent="1" vertex="1">
          <mxGeometry x="167" y="264" width="91" height="18" as="geometry" />
        </mxCell>
        <mxCell id="11" value="&lt;font style=&quot;font-size:11px;font-family:SimSun;color:#ffffff;direction:ltr;letter-spacing:0px;line-height:120%;opacity:1&quot;&gt;模型文件转换&lt;br/&gt;&lt;/font&gt;" style="verticalAlign=middle;align=center;vsdxID=14;fillColor=#5b9bd5;gradientColor=none;shape=stencil(nZBLDoAgDERP0z3SIyjew0SURgSD+Lu9kMZoXLhwN9O+tukAlrNpJg1SzDH4QW/URgNYgZTkjA4UkwJUgGXng+6DX1zLfmoymdXo17xh5zmRJ6Q42BWCfc2oJfdAr+Yv+AP9Cb7OJ3H/2JG1HNGz/84klThPVCc=);strokeColor=#ffffff;labelBackgroundColor=none;rounded=0;html=1;whiteSpace=wrap;" parent="1" vertex="1">
          <mxGeometry x="82" y="295" width="80" height="18" as="geometry" />
        </mxCell>
        <mxCell id="12" value="&lt;font style=&quot;font-size:11px;font-family:SimSun;color:#ffffff;direction:ltr;letter-spacing:0px;line-height:120%;opacity:1&quot;&gt;数据预处理&lt;br/&gt;&lt;/font&gt;" style="verticalAlign=middle;align=center;vsdxID=15;fillColor=#5b9bd5;gradientColor=none;shape=stencil(nZBLDoAgDERP0z3SIyjew0SURgSD+Lu9kMZoXLhwN9O+tukAlrNpJg1SzDH4QW/URgNYgZTkjA4UkwJUgGXng+6DX1zLfmoymdXo17xh5zmRJ6Q42BWCfc2oJfdAr+Yv+AP9Cb7OJ3H/2JG1HNGz/84klThPVCc=);strokeColor=#ffffff;labelBackgroundColor=none;rounded=0;html=1;whiteSpace=wrap;" parent="1" vertex="1">
          <mxGeometry x="178" y="232" width="70" height="18" as="geometry" />
        </mxCell>
        <mxCell id="13" value="&lt;font style=&quot;font-size:11px;font-family:SimSun;color:#ffffff;direction:ltr;letter-spacing:0px;line-height:120%;opacity:1&quot;&gt;模型文件&lt;br/&gt;&lt;/font&gt;" style="verticalAlign=middle;align=center;vsdxID=16;fillColor=#5b9bd5;gradientColor=none;shape=stencil(nZBLDoAgDERP0z3SIyjew0SURgSD+Lu9kMZoXLhwN9O+tukAlrNpJg1SzDH4QW/URgNYgZTkjA4UkwJUgGXng+6DX1zLfmoymdXo17xh5zmRJ6Q42BWCfc2oJfdAr+Yv+AP9Cb7OJ3H/2JG1HNGz/84klThPVCc=);strokeColor=#ffffff;labelBackgroundColor=none;rounded=0;html=1;whiteSpace=wrap;" parent="1" vertex="1">
          <mxGeometry x="342" y="248" width="70" height="18" as="geometry" />
        </mxCell>
        <mxCell id="14" value="&lt;font style=&quot;font-size: 11px ; font-family: &amp;#34;simsun&amp;#34; ; color: #ffffff ; direction: ltr ; letter-spacing: 0px ; line-height: 120% ; opacity: 1&quot;&gt;模型配置文件&lt;br&gt;&lt;/font&gt;" style="verticalAlign=middle;align=center;vsdxID=17;fillColor=#5b9bd5;gradientColor=none;shape=stencil(nZBLDoAgDERP0z3SIyjew0SURgSD+Lu9kMZoXLhwN9O+tukAlrNpJg1SzDH4QW/URgNYgZTkjA4UkwJUgGXng+6DX1zLfmoymdXo17xh5zmRJ6Q42BWCfc2oJfdAr+Yv+AP9Cb7OJ3H/2JG1HNGz/84klThPVCc=);strokeColor=#ffffff;labelBackgroundColor=none;rounded=0;html=1;whiteSpace=wrap;" parent="1" vertex="1">
          <mxGeometry x="425" y="248" width="107" height="18" as="geometry" />
        </mxCell>
        <mxCell id="15" value="&lt;font style=&quot;font-size:11px;font-family:SimSun;color:#ffffff;direction:ltr;letter-spacing:0px;line-height:120%;opacity:1&quot;&gt;模型仲裁文件&lt;br/&gt;&lt;/font&gt;" style="verticalAlign=middle;align=center;vsdxID=19;fillColor=#5b9bd5;gradientColor=none;shape=stencil(nZBLDoAgDERP0z3SIyjew0SURgSD+Lu9kMZoXLhwN9O+tukAlrNpJg1SzDH4QW/URgNYgZTkjA4UkwJUgGXng+6DX1zLfmoymdXo17xh5zmRJ6Q42BWCfc2oJfdAr+Yv+AP9Cb7OJ3H/2JG1HNGz/84klThPVCc=);strokeColor=#ffffff;labelBackgroundColor=none;rounded=0;html=1;whiteSpace=wrap;" parent="1" vertex="1">
          <mxGeometry x="340" y="281" width="91" height="18" as="geometry" />
        </mxCell>
        <mxCell id="16" value="&lt;font style=&quot;font-size:11px;font-family:SimSun;color:#ffffff;direction:ltr;letter-spacing:0px;line-height:120%;opacity:1&quot;&gt;生成个性化参数&lt;br/&gt;&lt;/font&gt;" style="verticalAlign=middle;align=center;vsdxID=20;fillColor=#5b9bd5;gradientColor=none;shape=stencil(nZBLDoAgDERP0z3SIyjew0SURgSD+Lu9kMZoXLhwN9O+tukAlrNpJg1SzDH4QW/URgNYgZTkjA4UkwJUgGXng+6DX1zLfmoymdXo17xh5zmRJ6Q42BWCfc2oJfdAr+Yv+AP9Cb7OJ3H/2JG1HNGz/84klThPVCc=);strokeColor=#ffffff;labelBackgroundColor=none;rounded=0;html=1;whiteSpace=wrap;" parent="1" vertex="1">
          <mxGeometry x="176" y="295" width="96" height="18" as="geometry" />
        </mxCell>
        <mxCell id="17" value="&lt;font style=&quot;font-size:11px;font-family:SimSun;color:#ffffff;direction:ltr;letter-spacing:0px;line-height:120%;opacity:1&quot;&gt;生成阻力值&lt;br/&gt;&lt;/font&gt;" style="verticalAlign=middle;align=center;vsdxID=21;fillColor=#5b9bd5;gradientColor=none;shape=stencil(nZBLDoAgDERP0z3SIyjew0SURgSD+Lu9kMZoXLhwN9O+tukAlrNpJg1SzDH4QW/URgNYgZTkjA4UkwJUgGXng+6DX1zLfmoymdXo17xh5zmRJ6Q42BWCfc2oJfdAr+Yv+AP9Cb7OJ3H/2JG1HNGz/84klThPVCc=);strokeColor=#ffffff;labelBackgroundColor=none;rounded=0;html=1;whiteSpace=wrap;" parent="1" vertex="1">
          <mxGeometry x="72" y="326" width="91" height="18" as="geometry" />
        </mxCell>
        <mxCell id="18" value="&lt;font style=&quot;font-size:11px;font-family:SimSun;color:#ffffff;direction:ltr;letter-spacing:0px;line-height:120%;opacity:1&quot;&gt;个性化参数&lt;br/&gt;&lt;/font&gt;" style="verticalAlign=middle;align=center;vsdxID=22;fillColor=#5b9bd5;gradientColor=none;shape=stencil(nZBLDoAgDERP0z3SIyjew0SURgSD+Lu9kMZoXLhwN9O+tukAlrNpJg1SzDH4QW/URgNYgZTkjA4UkwJUgGXng+6DX1zLfmoymdXo17xh5zmRJ6Q42BWCfc2oJfdAr+Yv+AP9Cb7OJ3H/2JG1HNGz/84klThPVCc=);strokeColor=#ffffff;labelBackgroundColor=none;rounded=0;html=1;whiteSpace=wrap;" parent="1" vertex="1">
          <mxGeometry x="441" y="281" width="91" height="18" as="geometry" />
        </mxCell>
        <mxCell id="19" value="&lt;font style=&quot;font-size:11px;font-family:SimSun;color:#ffffff;direction:ltr;letter-spacing:0px;line-height:120%;opacity:1&quot;&gt;阻力值&lt;br/&gt;&lt;/font&gt;" style="verticalAlign=middle;align=center;vsdxID=23;fillColor=#5b9bd5;gradientColor=none;shape=stencil(nZBLDoAgDERP0z3SIyjew0SURgSD+Lu9kMZoXLhwN9O+tukAlrNpJg1SzDH4QW/URgNYgZTkjA4UkwJUgGXng+6DX1zLfmoymdXo17xh5zmRJ6Q42BWCfc2oJfdAr+Yv+AP9Cb7OJ3H/2JG1HNGz/84klThPVCc=);strokeColor=#ffffff;labelBackgroundColor=none;rounded=0;html=1;whiteSpace=wrap;" parent="1" vertex="1">
          <mxGeometry x="340" y="314" width="91" height="18" as="geometry" />
        </mxCell>
        <mxCell id="20" value="&lt;font style=&quot;font-size:11px;font-family:SimSun;color:#ffffff;direction:ltr;letter-spacing:0px;line-height:120%;opacity:1&quot;&gt;模型管理&lt;br/&gt;&lt;/font&gt;" style="verticalAlign=middle;align=center;vsdxID=34;fillColor=#5b9bd5;gradientColor=none;shape=stencil(nZBLDoAgDERP0z3SIyjew0SURgSD+Lu9kMZoXLhwN9O+tukAlrNpJg1SzDH4QW/URgNYgZTkjA4UkwJUgGXng+6DX1zLfmoymdXo17xh5zmRJ6Q42BWCfc2oJfdAr+Yv+AP9Cb7OJ3H/2JG1HNGz/84klThPVCc=);strokeColor=#ffffff;labelBackgroundColor=none;rounded=0;html=1;whiteSpace=wrap;" parent="1" vertex="1">
          <mxGeometry x="337" y="419" width="91" height="18" as="geometry" />
        </mxCell>
        <mxCell id="21" value="&lt;font style=&quot;font-size:11px;font-family:SimSun;color:#ffffff;direction:ltr;letter-spacing:0px;line-height:120%;opacity:1&quot;&gt;模型数据管理&lt;br/&gt;&lt;/font&gt;" style="verticalAlign=middle;align=center;vsdxID=35;fillColor=#5b9bd5;gradientColor=none;shape=stencil(nZBLDoAgDERP0z3SIyjew0SURgSD+Lu9kMZoXLhwN9O+tukAlrNpJg1SzDH4QW/URgNYgZTkjA4UkwJUgGXng+6DX1zLfmoymdXo17xh5zmRJ6Q42BWCfc2oJfdAr+Yv+AP9Cb7OJ3H/2JG1HNGz/84klThPVCc=);strokeColor=#ffffff;labelBackgroundColor=none;rounded=0;html=1;whiteSpace=wrap;" parent="1" vertex="1">
          <mxGeometry x="436" y="419" width="91" height="18" as="geometry" />
        </mxCell>
        <mxCell id="22" value="&lt;font style=&quot;font-size:11px;font-family:SimSun;color:#ffffff;direction:ltr;letter-spacing:0px;line-height:120%;opacity:1&quot;&gt;数据统计&lt;br/&gt;&lt;/font&gt;" style="verticalAlign=middle;align=center;vsdxID=36;fillColor=#5b9bd5;gradientColor=none;shape=stencil(nZBLDoAgDERP0z3SIyjew0SURgSD+Lu9kMZoXLhwN9O+tukAlrNpJg1SzDH4QW/URgNYgZTkjA4UkwJUgGXng+6DX1zLfmoymdXo17xh5zmRJ6Q42BWCfc2oJfdAr+Yv+AP9Cb7OJ3H/2JG1HNGz/84klThPVCc=);strokeColor=#ffffff;labelBackgroundColor=none;rounded=0;html=1;whiteSpace=wrap;" parent="1" vertex="1">
          <mxGeometry x="337" y="447" width="91" height="18" as="geometry" />
        </mxCell>
        <mxCell id="23" value="&lt;font style=&quot;font-size:11px;font-family:SimSun;color:#ffffff;direction:ltr;letter-spacing:0px;line-height:120%;opacity:1&quot;&gt;反馈数据统计&lt;br/&gt;&lt;/font&gt;" style="verticalAlign=middle;align=center;vsdxID=37;fillColor=#5b9bd5;gradientColor=none;shape=stencil(nZBLDoAgDERP0z3SIyjew0SURgSD+Lu9kMZoXLhwN9O+tukAlrNpJg1SzDH4QW/URgNYgZTkjA4UkwJUgGXng+6DX1zLfmoymdXo17xh5zmRJ6Q42BWCfc2oJfdAr+Yv+AP9Cb7OJ3H/2JG1HNGz/84klThPVCc=);strokeColor=#ffffff;labelBackgroundColor=none;rounded=0;html=1;whiteSpace=wrap;" parent="1" vertex="1">
          <mxGeometry x="176" y="326" width="96" height="18" as="geometry" />
        </mxCell>
        <mxCell id="24" value="&lt;font style=&quot;font-size:11px;font-family:SimSun;color:#ffffff;direction:ltr;letter-spacing:0px;line-height:120%;opacity:1&quot;&gt;日志管理&lt;br/&gt;&lt;/font&gt;" style="verticalAlign=middle;align=center;vsdxID=38;fillColor=#5b9bd5;gradientColor=none;shape=stencil(nZBLDoAgDERP0z3SIyjew0SURgSD+Lu9kMZoXLhwN9O+tukAlrNpJg1SzDH4QW/URgNYgZTkjA4UkwJUgGXng+6DX1zLfmoymdXo17xh5zmRJ6Q42BWCfc2oJfdAr+Yv+AP9Cb7OJ3H/2JG1HNGz/84klThPVCc=);strokeColor=#ffffff;labelBackgroundColor=none;rounded=0;html=1;whiteSpace=wrap;" parent="1" vertex="1">
          <mxGeometry x="436" y="447" width="91" height="18" as="geometry" />
        </mxCell>
        <mxCell id="25" value="&lt;font style=&quot;font-size:11px;font-family:SimSun;color:#ffffff;direction:ltr;letter-spacing:0px;line-height:120%;opacity:1&quot;&gt;黑白名单管理&lt;br/&gt;&lt;/font&gt;" style="verticalAlign=middle;align=center;vsdxID=39;fillColor=#5b9bd5;gradientColor=none;shape=stencil(nZBLDoAgDERP0z3SIyjew0SURgSD+Lu9kMZoXLhwN9O+tukAlrNpJg1SzDH4QW/URgNYgZTkjA4UkwJUgGXng+6DX1zLfmoymdXo17xh5zmRJ6Q42BWCfc2oJfdAr+Yv+AP9Cb7OJ3H/2JG1HNGz/84klThPVCc=);strokeColor=#ffffff;labelBackgroundColor=none;rounded=0;html=1;whiteSpace=wrap;" parent="1" vertex="1">
          <mxGeometry x="334" y="476" width="91" height="18" as="geometry" />
        </mxCell>
        <mxCell id="26" value="&lt;font style=&quot;font-size:11px;font-family:SimSun;color:#ffffff;direction:ltr;letter-spacing:0px;line-height:120%;opacity:1&quot;&gt;系统管理&lt;br/&gt;&lt;/font&gt;" style="verticalAlign=middle;align=center;vsdxID=40;fillColor=#5b9bd5;gradientColor=none;shape=stencil(nZBLDoAgDERP0z3SIyjew0SURgSD+Lu9kMZoXLhwN9O+tukAlrNpJg1SzDH4QW/URgNYgZTkjA4UkwJUgGXng+6DX1zLfmoymdXo17xh5zmRJ6Q42BWCfc2oJfdAr+Yv+AP9Cb7OJ3H/2JG1HNGz/84klThPVCc=);strokeColor=#ffffff;labelBackgroundColor=none;rounded=0;html=1;whiteSpace=wrap;" parent="1" vertex="1">
          <mxGeometry x="436" y="476" width="91" height="18" as="geometry" />
        </mxCell>
        <mxCell id="27" value="&lt;font style=&quot;font-size:11px;font-family:SimSun;color:#ffffff;direction:ltr;letter-spacing:0px;line-height:120%;opacity:1&quot;&gt;数据融合&lt;br/&gt;&lt;/font&gt;" style="verticalAlign=middle;align=center;vsdxID=45;fillColor=#5b9bd5;gradientColor=none;shape=stencil(nZBLDoAgDERP0z3SIyjew0SURgSD+Lu9kMZoXLhwN9O+tukAlrNpJg1SzDH4QW/URgNYgZTkjA4UkwJUgGXng+6DX1zLfmoymdXo17xh5zmRJ6Q42BWCfc2oJfdAr+Yv+AP9Cb7OJ3H/2JG1HNGz/84klThPVCc=);strokeColor=#ffffff;labelBackgroundColor=none;rounded=0;html=1;whiteSpace=wrap;" parent="1" vertex="1">
          <mxGeometry x="600" y="419" width="80" height="18" as="geometry" />
        </mxCell>
        <mxCell id="28" value="&lt;font style=&quot;font-size:11px;font-family:SimSun;color:#ffffff;direction:ltr;letter-spacing:0px;line-height:120%;opacity:1&quot;&gt;模型预测&lt;br/&gt;&lt;/font&gt;" style="verticalAlign=middle;align=center;vsdxID=46;fillColor=#5b9bd5;gradientColor=none;shape=stencil(nZBLDoAgDERP0z3SIyjew0SURgSD+Lu9kMZoXLhwN9O+tukAlrNpJg1SzDH4QW/URgNYgZTkjA4UkwJUgGXng+6DX1zLfmoymdXo17xh5zmRJ6Q42BWCfc2oJfdAr+Yv+AP9Cb7OJ3H/2JG1HNGz/84klThPVCc=);strokeColor=#ffffff;labelBackgroundColor=none;rounded=0;html=1;whiteSpace=wrap;" parent="1" vertex="1">
          <mxGeometry x="688" y="419" width="80" height="18" as="geometry" />
        </mxCell>
        <mxCell id="29" value="&lt;font style=&quot;font-size:11px;font-family:SimSun;color:#ffffff;direction:ltr;letter-spacing:0px;line-height:120%;opacity:1&quot;&gt;数据埋点&lt;br/&gt;&lt;/font&gt;" style="verticalAlign=middle;align=center;vsdxID=47;fillColor=#5b9bd5;gradientColor=none;shape=stencil(nZBLDoAgDERP0z3SIyjew0SURgSD+Lu9kMZoXLhwN9O+tukAlrNpJg1SzDH4QW/URgNYgZTkjA4UkwJUgGXng+6DX1zLfmoymdXo17xh5zmRJ6Q42BWCfc2oJfdAr+Yv+AP9Cb7OJ3H/2JG1HNGz/84klThPVCc=);strokeColor=#ffffff;labelBackgroundColor=none;rounded=0;html=1;whiteSpace=wrap;" parent="1" vertex="1">
          <mxGeometry x="600" y="486" width="80" height="18" as="geometry" />
        </mxCell>
        <mxCell id="30" value="&lt;font style=&quot;font-size:11px;font-family:SimSun;color:#ffffff;direction:ltr;letter-spacing:0px;line-height:120%;opacity:1&quot;&gt;动作执行&lt;br/&gt;&lt;/font&gt;" style="verticalAlign=middle;align=center;vsdxID=48;fillColor=#5b9bd5;gradientColor=none;shape=stencil(nZBLDoAgDERP0z3SIyjew0SURgSD+Lu9kMZoXLhwN9O+tukAlrNpJg1SzDH4QW/URgNYgZTkjA4UkwJUgGXng+6DX1zLfmoymdXo17xh5zmRJ6Q42BWCfc2oJfdAr+Yv+AP9Cb7OJ3H/2JG1HNGz/84klThPVCc=);strokeColor=#ffffff;labelBackgroundColor=none;rounded=0;html=1;whiteSpace=wrap;" parent="1" vertex="1">
          <mxGeometry x="704" y="452" width="70" height="18" as="geometry" />
        </mxCell>
        <mxCell id="31" value="&lt;font style=&quot;font-size:11px;font-family:SimSun;color:#ffffff;direction:ltr;letter-spacing:0px;line-height:120%;opacity:1&quot;&gt;场景及动作仲裁&lt;br/&gt;&lt;/font&gt;" style="verticalAlign=middle;align=center;vsdxID=49;fillColor=#5b9bd5;gradientColor=none;shape=stencil(nZBLDoAgDERP0z3SIyjew0SURgSD+Lu9kMZoXLhwN9O+tukAlrNpJg1SzDH4QW/URgNYgZTkjA4UkwJUgGXng+6DX1zLfmoymdXo17xh5zmRJ6Q42BWCfc2oJfdAr+Yv+AP9Cb7OJ3H/2JG1HNGz/84klThPVCc=);strokeColor=#ffffff;labelBackgroundColor=none;rounded=0;html=1;whiteSpace=wrap;" parent="1" vertex="1">
          <mxGeometry x="600" y="452" width="91" height="18" as="geometry" />
        </mxCell>
        <mxCell id="32" value="&lt;font style=&quot;font-size:11px;font-family:SimSun;color:#ffffff;direction:ltr;letter-spacing:0px;line-height:120%;opacity:1&quot;&gt;大数据平台&lt;br/&gt;&lt;/font&gt;" style="verticalAlign=middle;align=center;vsdxID=51;fillColor=#FFCE9F;gradientColor=none;shape=stencil(nZBLDoAgDERP0z3SIyjew0SURgSD+Lu9kMZoXLhwN9O+tukAlrNpJg1SzDH4QW/URgNYgZTkjA4UkwJUgGXng+6DX1zLfmoymdXo17xh5zmRJ6Q42BWCfc2oJfdAr+Yv+AP9Cb7OJ3H/2JG1HNGz/84klThPVCc=);strokeColor=#ffffff;labelBackgroundColor=none;rounded=0;html=1;whiteSpace=wrap;" parent="1" vertex="1">
          <mxGeometry x="640" y="117" width="76" height="46" as="geometry" />
        </mxCell>
        <mxCell id="33" style="vsdxID=56;edgeStyle=none;startArrow=none;endArrow=block;startSize=5;endSize=5;strokeColor=#6ca43e;spacingTop=0;spacingBottom=0;spacingLeft=0;spacingRight=0;verticalAlign=middle;html=1;labelBackgroundColor=#ffffff;rounded=0;exitX=0;exitY=0.5;exitDx=0;exitDy=0;exitPerimeter=0;entryX=1;entryY=0.5;entryDx=0;entryDy=0;entryPerimeter=0;" parent="1" source="32" target="6" edge="1">
          <mxGeometry relative="1" as="geometry">
            <mxPoint as="offset" />
            <Array as="points" />
          </mxGeometry>
        </mxCell>
        <mxCell id="34" style="vsdxID=55;edgeStyle=none;startArrow=none;endArrow=block;startSize=5;endSize=5;strokeColor=#849e33;spacingTop=0;spacingBottom=0;spacingLeft=0;spacingRight=0;verticalAlign=middle;html=1;labelBackgroundColor=#FFFFFF;rounded=0;exitX=1;exitY=0.5;exitDx=0;exitDy=0;exitPerimeter=0;entryX=0.298;entryY=-0.007;entryDx=0;entryDy=0;entryPerimeter=0;" parent="1" source="5" target="4" edge="1">
          <mxGeometry relative="1" as="geometry">
            <mxPoint as="offset" />
            <Array as="points">
              <mxPoint x="650" y="276" />
            </Array>
          </mxGeometry>
        </mxCell>
        <mxCell id="0WRfTQtK_RN6OEeFgjHD-39" value="拉取模型及数据" style="edgeLabel;html=1;align=center;verticalAlign=middle;resizable=0;points=[];fontSize=8;fontColor=#6CA43E;" parent="34" vertex="1" connectable="0">
          <mxGeometry x="-0.6156" y="1" relative="1" as="geometry">
            <mxPoint y="1" as="offset" />
          </mxGeometry>
        </mxCell>
        <mxCell id="35" value="埋点上传" style="vsdxID=11;edgeStyle=none;startArrow=none;endArrow=block;startSize=5;endSize=5;strokeColor=#849e33;spacingTop=0;spacingBottom=0;spacingLeft=0;spacingRight=0;verticalAlign=middle;html=1;labelBackgroundColor=#ffffff;rounded=0;align=center;exitX=0.454;exitY=-0.02;exitDx=0;exitDy=0;exitPerimeter=0;entryX=0.5;entryY=1;entryDx=0;entryDy=0;entryPerimeter=0;fontSize=8;fontColor=#6CA43E;" parent="1" source="4" target="32" edge="1">
          <mxGeometry x="0.3077" relative="1" as="geometry">
            <mxPoint as="offset" />
            <Array as="points">
              <mxPoint x="678" y="270" />
            </Array>
          </mxGeometry>
        </mxCell>
        <mxCell id="36" value="&lt;font style=&quot;font-size: 8px; font-family: Calibri; color: rgb(83, 128, 46); direction: ltr; letter-spacing: 0px; line-height: 120%; opacity: 1;&quot;&gt;存储&lt;br style=&quot;font-size: 8px;&quot;&gt;&lt;/font&gt;" style="vsdxID=28;edgeStyle=none;startArrow=none;endArrow=block;startSize=5;endSize=5;strokeColor=#6ca43e;spacingTop=0;spacingBottom=0;spacingLeft=0;spacingRight=0;verticalAlign=middle;html=1;labelBackgroundColor=#FFFFFF;rounded=0;align=center;exitX=1;exitY=0.5;exitDx=0;exitDy=0;exitPerimeter=0;entryX=0;entryY=0.5;entryDx=0;entryDy=0;entryPerimeter=0;fontSize=8;" parent="1" source="2" target="5" edge="1">
          <mxGeometry relative="1" as="geometry">
            <mxPoint as="offset" />
            <Array as="points" />
          </mxGeometry>
        </mxCell>
        <mxCell id="37" value="&lt;font style=&quot;font-size: 8px; font-family: SimSun; color: rgb(83, 128, 46); direction: ltr; letter-spacing: 0px; line-height: 120%; opacity: 1;&quot;&gt;通知&lt;br style=&quot;font-size: 8px;&quot;&gt;&lt;/font&gt;" style="vsdxID=31;edgeStyle=none;startArrow=none;endArrow=block;startSize=5;endSize=5;strokeColor=#6ca43e;spacingTop=0;spacingBottom=0;spacingLeft=0;spacingRight=0;verticalAlign=middle;html=1;labelBackgroundColor=#ffffff;rounded=0;align=center;exitX=0.5;exitY=1;exitDx=0;exitDy=0;exitPerimeter=0;entryX=0;entryY=0.5;entryDx=0;entryDy=0;entryPerimeter=0;fontSize=8;" parent="1" source="2" target="3" edge="1">
          <mxGeometry relative="1" as="geometry">
            <mxPoint as="offset" />
            <Array as="points">
              <mxPoint x="176" y="448" />
            </Array>
          </mxGeometry>
        </mxCell>
        <mxCell id="39" value="&lt;font style=&quot;font-size: 8px; font-family: SimSun; color: rgb(83, 128, 46); direction: ltr; letter-spacing: 0px; line-height: 120%; opacity: 1;&quot;&gt;拉取宽表数据&lt;br style=&quot;font-size: 8px;&quot;&gt;&lt;/font&gt;" style="vsdxID=53;edgeStyle=none;startArrow=none;endArrow=block;startSize=5;endSize=5;strokeColor=#6ca43e;spacingTop=0;spacingBottom=0;spacingLeft=0;spacingRight=0;verticalAlign=middle;html=1;labelBackgroundColor=#ffffff;rounded=0;align=center;exitX=0;exitY=0.5;exitDx=0;exitDy=0;exitPerimeter=0;entryX=0.5;entryY=0;entryDx=0;entryDy=0;entryPerimeter=0;fontSize=8;" parent="1" source="6" target="2" edge="1">
          <mxGeometry relative="1" as="geometry">
            <mxPoint as="offset" />
            <Array as="points">
              <mxPoint x="176" y="140" />
            </Array>
          </mxGeometry>
        </mxCell>
        <mxCell id="hTXI7saE1Gndrye0qWx4-39" value="&lt;font color=&quot;#ffffff&quot;&gt;TSP&lt;/font&gt;" style="verticalAlign=middle;align=center;vsdxID=51;fillColor=#FFCE9F;gradientColor=none;shape=stencil(nZBLDoAgDERP0z3SIyjew0SURgSD+Lu9kMZoXLhwN9O+tukAlrNpJg1SzDH4QW/URgNYgZTkjA4UkwJUgGXng+6DX1zLfmoymdXo17xh5zmRJ6Q42BWCfc2oJfdAr+Yv+AP9Cb7OJ3H/2JG1HNGz/84klThPVCc=);strokeColor=#ffffff;labelBackgroundColor=none;rounded=0;html=1;whiteSpace=wrap;" parent="1" vertex="1">
          <mxGeometry x="610" y="306" width="136" height="26" as="geometry" />
        </mxCell>
      </root>
    </mxGraphModel>
  </diagram>
  <diagram name="新平台" id="新平台">
    <mxGraphModel dx="2327" dy="1999" grid="1" gridSize="10" guides="1" tooltips="1" connect="1" arrows="1" fold="1" page="1" pageScale="1" pageWidth="827" pageHeight="1169" math="0" shadow="0">
      <root>
        <mxCell id="0" />
        <mxCell id="1" value="连接线" parent="0" />
        <mxCell id="130KtOGb3v3diRqoLx_i-55" style="edgeStyle=none;rounded=0;orthogonalLoop=1;jettySize=auto;html=1;fontSize=8;strokeColor=#B20000;exitX=0.723;exitY=1.01;exitDx=0;exitDy=0;exitPerimeter=0;entryX=0.003;entryY=0.625;entryDx=0;entryDy=0;entryPerimeter=0;fillColor=#e51400;strokeWidth=3;" parent="1" source="3" target="5" edge="1">
          <mxGeometry relative="1" as="geometry">
            <mxPoint x="120" y="-200" as="targetPoint" />
            <Array as="points">
              <mxPoint x="8" y="-280" />
            </Array>
          </mxGeometry>
        </mxCell>
        <mxCell id="130KtOGb3v3diRqoLx_i-56" value="模型更新通知" style="edgeLabel;html=1;align=center;verticalAlign=middle;resizable=0;points=[];fontSize=8;fontColor=#6CA43E;" parent="130KtOGb3v3diRqoLx_i-55" vertex="1" connectable="0">
          <mxGeometry x="-0.2509" y="-1" relative="1" as="geometry">
            <mxPoint as="offset" />
          </mxGeometry>
        </mxCell>
        <mxCell id="3" value="&lt;font style=&quot;font-size: 11px; font-family: SimSun; direction: ltr; letter-spacing: 0px; line-height: 120%; opacity: 1;&quot;&gt;云端管理应用&lt;br&gt;&lt;/font&gt;" style="verticalAlign=top;align=center;vsdxID=1;fillColor=#cdeb8b;shape=stencil(nZBLDoAgDERP0z3SIyjew0SURgSD+Lu9kMZoXLhwN9O+tukAlrNpJg1SzDH4QW/URgNYgZTkjA4UkwJUgGXng+6DX1zLfmoymdXo17xh5zmRJ6Q42BWCfc2oJfdAr+Yv+AP9Cb7OJ3H/2JG1HNGz/84klThPVCc=);strokeColor=#36393d;labelBackgroundColor=none;rounded=0;html=1;whiteSpace=wrap;fontColor=#000000;" parent="1" vertex="1">
          <mxGeometry x="-154" y="-560" width="224" height="120" as="geometry" />
        </mxCell>
        <mxCell id="paHJNphbgzUgCTfKWvIv-55" style="edgeStyle=none;rounded=0;orthogonalLoop=1;jettySize=auto;html=1;fontSize=8;fontColor=#000000;strokeColor=#6CA43E;exitX=0.625;exitY=0.994;exitDx=0;exitDy=0;exitPerimeter=0;strokeWidth=4;" parent="1" source="4" edge="1">
          <mxGeometry relative="1" as="geometry">
            <mxPoint x="-255" y="-570" as="sourcePoint" />
            <mxPoint x="-330" y="-430" as="targetPoint" />
            <Array as="points" />
          </mxGeometry>
        </mxCell>
        <mxCell id="53tIumtDBhUVxoSVDP5E-55" value="存储" style="edgeLabel;html=1;align=center;verticalAlign=middle;resizable=0;points=[];fontSize=8;fontColor=#6CA43E;" parent="paHJNphbgzUgCTfKWvIv-55" vertex="1" connectable="0">
          <mxGeometry x="0.2028" y="2" relative="1" as="geometry">
            <mxPoint as="offset" />
          </mxGeometry>
        </mxCell>
        <mxCell id="4" value="&lt;font style=&quot;font-size: 11px; font-family: SimSun; direction: ltr; letter-spacing: 0px; line-height: 120%; opacity: 1;&quot;&gt;AI平台&lt;br&gt;&lt;/font&gt;" style="verticalAlign=top;align=center;vsdxID=2;fillColor=#cdeb8b;shape=stencil(nZBLDoAgDERP0z3SIyjew0SURgSD+Lu9kMZoXLhwN9O+tukAlrNpJg1SzDH4QW/URgNYgZTkjA4UkwJUgGXng+6DX1zLfmoymdXo17xh5zmRJ6Q42BWCfc2oJfdAr+Yv+AP9Cb7OJ3H/2JG1HNGz/84klThPVCc=);strokeColor=#36393d;labelBackgroundColor=none;rounded=0;html=1;whiteSpace=wrap;fontColor=#000000;" parent="1" vertex="1">
          <mxGeometry x="-480" y="-690" width="240" height="161" as="geometry" />
        </mxCell>
        <mxCell id="5" value="&lt;font style=&quot;font-size:11px;font-family:SimSun;color:#ffffff;direction:ltr;letter-spacing:0px;line-height:120%;opacity:1&quot;&gt;车机&lt;br/&gt;&lt;/font&gt;" style="verticalAlign=top;align=center;vsdxID=3;fillColor=#5b9bd5;gradientColor=none;shape=stencil(nZBLDoAgDERP0z3SIyjew0SURgSD+Lu9kMZoXLhwN9O+tukAlrNpJg1SzDH4QW/URgNYgZTkjA4UkwJUgGXng+6DX1zLfmoymdXo17xh5zmRJ6Q42BWCfc2oJfdAr+Yv+AP9Cb7OJ3H/2JG1HNGz/84klThPVCc=);strokeColor=#ffffff;labelBackgroundColor=none;rounded=0;html=1;whiteSpace=wrap;" parent="1" vertex="1">
          <mxGeometry x="110" y="-360" width="202.5" height="128" as="geometry" />
        </mxCell>
        <mxCell id="9" value="&lt;font style=&quot;font-size:11px;font-family:SimSun;color:#ffffff;direction:ltr;letter-spacing:0px;line-height:120%;opacity:1&quot;&gt;数据集&lt;br&gt;&lt;/font&gt;" style="verticalAlign=middle;align=center;vsdxID=7;fillColor=#5b9bd5;gradientColor=none;shape=stencil(nZBLDoAgDERP0z3SIyjew0SURgSD+Lu9kMZoXLhwN9O+tukAlrNpJg1SzDH4QW/URgNYgZTkjA4UkwJUgGXng+6DX1zLfmoymdXo17xh5zmRJ6Q42BWCfc2oJfdAr+Yv+AP9Cb7OJ3H/2JG1HNGz/84klThPVCc=);strokeColor=#ffffff;labelBackgroundColor=none;rounded=0;html=1;whiteSpace=wrap;" parent="1" vertex="1">
          <mxGeometry x="-470" y="-623" width="70" height="18" as="geometry" />
        </mxCell>
        <mxCell id="11" value="&lt;font style=&quot;font-size:11px;font-family:SimSun;color:#ffffff;direction:ltr;letter-spacing:0px;line-height:120%;opacity:1&quot;&gt;模型&lt;br&gt;&lt;/font&gt;" style="verticalAlign=middle;align=center;vsdxID=12;fillColor=#5b9bd5;gradientColor=none;shape=stencil(nZBLDoAgDERP0z3SIyjew0SURgSD+Lu9kMZoXLhwN9O+tukAlrNpJg1SzDH4QW/URgNYgZTkjA4UkwJUgGXng+6DX1zLfmoymdXo17xh5zmRJ6Q42BWCfc2oJfdAr+Yv+AP9Cb7OJ3H/2JG1HNGz/84klThPVCc=);strokeColor=#ffffff;labelBackgroundColor=none;rounded=0;html=1;whiteSpace=wrap;" parent="1" vertex="1">
          <mxGeometry x="-385" y="-620" width="27.5" height="38" as="geometry" />
        </mxCell>
        <mxCell id="12" value="&lt;font style=&quot;font-size:11px;font-family:SimSun;color:#ffffff;direction:ltr;letter-spacing:0px;line-height:120%;opacity:1&quot;&gt;模型配置文件&lt;br&gt;&lt;/font&gt;" style="verticalAlign=middle;align=center;vsdxID=13;fillColor=#5b9bd5;gradientColor=none;shape=stencil(nZBLDoAgDERP0z3SIyjew0SURgSD+Lu9kMZoXLhwN9O+tukAlrNpJg1SzDH4QW/URgNYgZTkjA4UkwJUgGXng+6DX1zLfmoymdXo17xh5zmRJ6Q42BWCfc2oJfdAr+Yv+AP9Cb7OJ3H/2JG1HNGz/84klThPVCc=);strokeColor=#ffffff;labelBackgroundColor=none;rounded=0;html=1;whiteSpace=wrap;" parent="1" vertex="1">
          <mxGeometry x="-335" y="-582" width="85" height="18" as="geometry" />
        </mxCell>
        <mxCell id="13" value="&lt;font style=&quot;font-size:11px;font-family:SimSun;color:#ffffff;direction:ltr;letter-spacing:0px;line-height:120%;opacity:1&quot;&gt;模型文件&lt;br&gt;&lt;/font&gt;" style="verticalAlign=middle;align=center;vsdxID=14;fillColor=#5b9bd5;gradientColor=none;shape=stencil(nZBLDoAgDERP0z3SIyjew0SURgSD+Lu9kMZoXLhwN9O+tukAlrNpJg1SzDH4QW/URgNYgZTkjA4UkwJUgGXng+6DX1zLfmoymdXo17xh5zmRJ6Q42BWCfc2oJfdAr+Yv+AP9Cb7OJ3H/2JG1HNGz/84klThPVCc=);strokeColor=#ffffff;labelBackgroundColor=none;rounded=0;html=1;whiteSpace=wrap;" parent="1" vertex="1">
          <mxGeometry x="-335" y="-627" width="85" height="18" as="geometry" />
        </mxCell>
        <mxCell id="UX9mmLWop80njFoA0dHe-65" style="edgeStyle=none;rounded=0;orthogonalLoop=1;jettySize=auto;html=1;fontSize=8;strokeColor=#6CA43E;fillColor=#60a917;entryX=0.937;entryY=-0.012;entryDx=0;entryDy=0;entryPerimeter=0;" parent="1" target="5" edge="1">
          <mxGeometry relative="1" as="geometry">
            <mxPoint x="222" y="-360" as="targetPoint" />
            <mxPoint x="300" y="-640" as="sourcePoint" />
          </mxGeometry>
        </mxCell>
        <mxCell id="UX9mmLWop80njFoA0dHe-66" value="数据加载" style="edgeLabel;html=1;align=center;verticalAlign=middle;resizable=0;points=[];fontSize=8;fontColor=#6CA43E;" parent="UX9mmLWop80njFoA0dHe-65" vertex="1" connectable="0">
          <mxGeometry x="-0.0818" y="-1" relative="1" as="geometry">
            <mxPoint as="offset" />
          </mxGeometry>
        </mxCell>
        <mxCell id="21" value="&lt;font style=&quot;font-size:11px;font-family:SimSun;color:#ffffff;direction:ltr;letter-spacing:0px;line-height:120%;opacity:1&quot;&gt;模型展示&lt;br&gt;&lt;/font&gt;" style="verticalAlign=middle;align=center;vsdxID=24;fillColor=#5b9bd5;gradientColor=none;shape=stencil(nZBLDoAgDERP0z3SIyjew0SURgSD+Lu9kMZoXLhwN9O+tukAlrNpJg1SzDH4QW/URgNYgZTkjA4UkwJUgGXng+6DX1zLfmoymdXo17xh5zmRJ6Q42BWCfc2oJfdAr+Yv+AP9Cb7OJ3H/2JG1HNGz/84klThPVCc=);strokeColor=#ffffff;labelBackgroundColor=none;rounded=0;html=1;whiteSpace=wrap;" parent="1" vertex="1">
          <mxGeometry x="-40" y="-529" width="91" height="18" as="geometry" />
        </mxCell>
        <mxCell id="22" value="&lt;font style=&quot;font-size:11px;font-family:SimSun;color:#ffffff;direction:ltr;letter-spacing:0px;line-height:120%;opacity:1&quot;&gt;streamlit展示&lt;br&gt;&lt;/font&gt;" style="verticalAlign=middle;align=center;vsdxID=25;fillColor=#5b9bd5;gradientColor=none;shape=stencil(nZBLDoAgDERP0z3SIyjew0SURgSD+Lu9kMZoXLhwN9O+tukAlrNpJg1SzDH4QW/URgNYgZTkjA4UkwJUgGXng+6DX1zLfmoymdXo17xh5zmRJ6Q42BWCfc2oJfdAr+Yv+AP9Cb7OJ3H/2JG1HNGz/84klThPVCc=);strokeColor=#ffffff;labelBackgroundColor=none;rounded=0;html=1;whiteSpace=wrap;" parent="1" vertex="1">
          <mxGeometry x="-39.5" y="-500" width="91" height="18" as="geometry" />
        </mxCell>
        <mxCell id="28" value="&lt;font style=&quot;font-size:11px;font-family:SimSun;color:#ffffff;direction:ltr;letter-spacing:0px;line-height:120%;opacity:1&quot;&gt;数据融合&lt;br/&gt;&lt;/font&gt;" style="verticalAlign=middle;align=center;vsdxID=33;fillColor=#5b9bd5;gradientColor=none;shape=stencil(nZBLDoAgDERP0z3SIyjew0SURgSD+Lu9kMZoXLhwN9O+tukAlrNpJg1SzDH4QW/URgNYgZTkjA4UkwJUgGXng+6DX1zLfmoymdXo17xh5zmRJ6Q42BWCfc2oJfdAr+Yv+AP9Cb7OJ3H/2JG1HNGz/84klThPVCc=);strokeColor=#ffffff;labelBackgroundColor=none;rounded=0;html=1;whiteSpace=wrap;" parent="1" vertex="1">
          <mxGeometry x="132.5" y="-331" width="80" height="18" as="geometry" />
        </mxCell>
        <mxCell id="29" value="&lt;font style=&quot;font-size:11px;font-family:SimSun;color:#ffffff;direction:ltr;letter-spacing:0px;line-height:120%;opacity:1&quot;&gt;模型预测&lt;br/&gt;&lt;/font&gt;" style="verticalAlign=middle;align=center;vsdxID=34;fillColor=#5b9bd5;gradientColor=none;shape=stencil(nZBLDoAgDERP0z3SIyjew0SURgSD+Lu9kMZoXLhwN9O+tukAlrNpJg1SzDH4QW/URgNYgZTkjA4UkwJUgGXng+6DX1zLfmoymdXo17xh5zmRJ6Q42BWCfc2oJfdAr+Yv+AP9Cb7OJ3H/2JG1HNGz/84klThPVCc=);strokeColor=#ffffff;labelBackgroundColor=none;rounded=0;html=1;whiteSpace=wrap;" parent="1" vertex="1">
          <mxGeometry x="220.5" y="-331" width="80" height="18" as="geometry" />
        </mxCell>
        <mxCell id="30" value="&lt;font style=&quot;font-size:11px;font-family:SimSun;color:#ffffff;direction:ltr;letter-spacing:0px;line-height:120%;opacity:1&quot;&gt;数据埋点&lt;br/&gt;&lt;/font&gt;" style="verticalAlign=middle;align=center;vsdxID=35;fillColor=#5b9bd5;gradientColor=none;shape=stencil(nZBLDoAgDERP0z3SIyjew0SURgSD+Lu9kMZoXLhwN9O+tukAlrNpJg1SzDH4QW/URgNYgZTkjA4UkwJUgGXng+6DX1zLfmoymdXo17xh5zmRJ6Q42BWCfc2oJfdAr+Yv+AP9Cb7OJ3H/2JG1HNGz/84klThPVCc=);strokeColor=#ffffff;labelBackgroundColor=none;rounded=0;html=1;whiteSpace=wrap;" parent="1" vertex="1">
          <mxGeometry x="132.5" y="-264" width="80" height="18" as="geometry" />
        </mxCell>
        <mxCell id="31" value="&lt;font style=&quot;font-size:11px;font-family:SimSun;color:#ffffff;direction:ltr;letter-spacing:0px;line-height:120%;opacity:1&quot;&gt;动作执行&lt;br/&gt;&lt;/font&gt;" style="verticalAlign=middle;align=center;vsdxID=36;fillColor=#5b9bd5;gradientColor=none;shape=stencil(nZBLDoAgDERP0z3SIyjew0SURgSD+Lu9kMZoXLhwN9O+tukAlrNpJg1SzDH4QW/URgNYgZTkjA4UkwJUgGXng+6DX1zLfmoymdXo17xh5zmRJ6Q42BWCfc2oJfdAr+Yv+AP9Cb7OJ3H/2JG1HNGz/84klThPVCc=);strokeColor=#ffffff;labelBackgroundColor=none;rounded=0;html=1;whiteSpace=wrap;" parent="1" vertex="1">
          <mxGeometry x="236.5" y="-298" width="70" height="18" as="geometry" />
        </mxCell>
        <mxCell id="UX9mmLWop80njFoA0dHe-56" style="edgeStyle=none;rounded=0;orthogonalLoop=1;jettySize=auto;html=1;fontSize=8;strokeColor=#6CA43E;fillColor=#60a917;exitX=0.398;exitY=-0.012;exitDx=0;exitDy=0;exitPerimeter=0;strokeWidth=4;" parent="1" edge="1">
          <mxGeometry relative="1" as="geometry">
            <mxPoint x="214" y="-850" as="targetPoint" />
            <mxPoint x="216.5949999999998" y="-361.5360000000003" as="sourcePoint" />
            <Array as="points">
              <mxPoint x="214" y="-840" />
            </Array>
          </mxGeometry>
        </mxCell>
        <mxCell id="UX9mmLWop80njFoA0dHe-59" value="Text" style="edgeLabel;html=1;align=center;verticalAlign=middle;resizable=0;points=[];fontSize=8;" parent="UX9mmLWop80njFoA0dHe-56" vertex="1" connectable="0">
          <mxGeometry x="0.1681" y="1" relative="1" as="geometry">
            <mxPoint as="offset" />
          </mxGeometry>
        </mxCell>
        <mxCell id="UX9mmLWop80njFoA0dHe-61" value="埋点存储" style="edgeLabel;html=1;align=center;verticalAlign=middle;resizable=0;points=[];fontSize=8;fontColor=#6CA43E;" parent="UX9mmLWop80njFoA0dHe-56" vertex="1" connectable="0">
          <mxGeometry x="0.1629" y="-2" relative="1" as="geometry">
            <mxPoint as="offset" />
          </mxGeometry>
        </mxCell>
        <mxCell id="32" value="&lt;font style=&quot;font-size:11px;font-family:SimSun;color:#ffffff;direction:ltr;letter-spacing:0px;line-height:120%;opacity:1&quot;&gt;场景及动作仲裁&lt;br/&gt;&lt;/font&gt;" style="verticalAlign=middle;align=center;vsdxID=37;fillColor=#5b9bd5;gradientColor=none;shape=stencil(nZBLDoAgDERP0z3SIyjew0SURgSD+Lu9kMZoXLhwN9O+tukAlrNpJg1SzDH4QW/URgNYgZTkjA4UkwJUgGXng+6DX1zLfmoymdXo17xh5zmRJ6Q42BWCfc2oJfdAr+Yv+AP9Cb7OJ3H/2JG1HNGz/84klThPVCc=);strokeColor=#ffffff;labelBackgroundColor=none;rounded=0;html=1;whiteSpace=wrap;" parent="1" vertex="1">
          <mxGeometry x="132.5" y="-298" width="91" height="18" as="geometry" />
        </mxCell>
        <mxCell id="36" value="&lt;font style=&quot;font-size:11px;font-family:SimSun;color:#ffffff;direction:ltr;letter-spacing:0px;line-height:120%;opacity:1&quot;&gt;TSP&lt;br/&gt;&lt;/font&gt;" style="verticalAlign=middle;align=center;vsdxID=49;fillColor=#FFCE9F;shape=stencil(nZBLDoAgDERP0z3SIyjew0SURgSD+Lu9kMZoXLhwN9O+tukAlrNpJg1SzDH4QW/URgNYgZTkjA4UkwJUgGXng+6DX1zLfmoymdXo17xh5zmRJ6Q42BWCfc2oJfdAr+Yv+AP9Cb7OJ3H/2JG1HNGz/84klThPVCc=);strokeColor=#d79b00;labelBackgroundColor=none;rounded=0;html=1;whiteSpace=wrap;" parent="1" vertex="1">
          <mxGeometry x="-10" y="-420" width="322.5" height="18" as="geometry" />
        </mxCell>
        <mxCell id="47" value="&lt;div style=&quot;text-align: left;&quot;&gt;&lt;span style=&quot;color: rgb(83, 128, 46); font-family: simsun; letter-spacing: 0px;&quot;&gt;1.个性化、阻力数据更新通知&lt;/span&gt;&lt;/div&gt;&lt;font style=&quot;font-size: 8px; font-family: simsun; color: rgb(83, 128, 46); direction: ltr; letter-spacing: 0px; line-height: 120%; opacity: 1;&quot;&gt;&lt;div style=&quot;text-align: left;&quot;&gt;&lt;span style=&quot;letter-spacing: 0px;&quot;&gt;2.streamlit页面嵌入&lt;/span&gt;&lt;/div&gt;&lt;div style=&quot;text-align: left;&quot;&gt;&lt;span style=&quot;letter-spacing: 0px;&quot;&gt;3.获取vin和车型对应表&lt;/span&gt;&lt;/div&gt;&lt;/font&gt;" style="vsdxID=56;edgeStyle=none;startArrow=none;endArrow=block;startSize=5;endSize=5;strokeColor=#B20000;spacingTop=0;spacingBottom=0;spacingLeft=0;spacingRight=0;verticalAlign=middle;html=1;labelBackgroundColor=#ffffff;rounded=0;align=center;exitX=0.779;exitY=1.003;exitDx=0;exitDy=0;exitPerimeter=0;entryX=0.753;entryY=0;entryDx=0;entryDy=0;entryPerimeter=0;strokeWidth=3;fontSize=8;fillColor=#e51400;" parent="1" source="7" target="3" edge="1">
          <mxGeometry x="-0.3119" relative="1" as="geometry">
            <mxPoint as="offset" />
            <Array as="points" />
            <mxPoint x="53" y="-670" as="sourcePoint" />
            <mxPoint x="34" y="-560" as="targetPoint" />
          </mxGeometry>
        </mxCell>
        <mxCell id="49" value="&lt;font style=&quot;font-size: 8px; font-family: SimSun; color: rgb(83, 128, 46); direction: ltr; letter-spacing: 0px; line-height: 120%; opacity: 1;&quot;&gt;训练数据更新通知&lt;br style=&quot;font-size: 8px;&quot;&gt;&lt;/font&gt;" style="vsdxID=48;edgeStyle=none;startArrow=none;endArrow=block;startSize=5;endSize=5;strokeColor=#B20000;spacingTop=0;spacingBottom=0;spacingLeft=0;spacingRight=0;verticalAlign=middle;html=1;labelBackgroundColor=#ffffff;rounded=0;align=center;exitX=0;exitY=0.5;exitDx=0;exitDy=0;exitPerimeter=0;entryX=0.5;entryY=0;entryDx=0;entryDy=0;entryPerimeter=0;fontSize=8;fillColor=#e51400;strokeWidth=3;" parent="1" source="7" target="4" edge="1">
          <mxGeometry relative="1" as="geometry">
            <mxPoint as="offset" />
            <Array as="points">
              <mxPoint x="-360" y="-745" />
            </Array>
          </mxGeometry>
        </mxCell>
        <mxCell id="HCPk9M70dHxpPQTd53Pf-57" value="&lt;font style=&quot;font-size:11px;font-family:SimSun;color:#ffffff;direction:ltr;letter-spacing:0px;line-height:120%;opacity:1&quot;&gt;个性化参数展示&lt;br&gt;&lt;/font&gt;" style="verticalAlign=middle;align=center;vsdxID=25;fillColor=#5b9bd5;gradientColor=none;shape=stencil(nZBLDoAgDERP0z3SIyjew0SURgSD+Lu9kMZoXLhwN9O+tukAlrNpJg1SzDH4QW/URgNYgZTkjA4UkwJUgGXng+6DX1zLfmoymdXo17xh5zmRJ6Q42BWCfc2oJfdAr+Yv+AP9Cb7OJ3H/2JG1HNGz/84klThPVCc=);strokeColor=#ffffff;labelBackgroundColor=none;rounded=0;html=1;whiteSpace=wrap;" parent="1" vertex="1">
          <mxGeometry x="-141" y="-470" width="91" height="18" as="geometry" />
        </mxCell>
        <mxCell id="HCPk9M70dHxpPQTd53Pf-58" value="&lt;font style=&quot;font-size:11px;font-family:SimSun;color:#ffffff;direction:ltr;letter-spacing:0px;line-height:120%;opacity:1&quot;&gt;模型注册&lt;br&gt;&lt;/font&gt;" style="verticalAlign=middle;align=center;vsdxID=24;fillColor=#5b9bd5;gradientColor=none;shape=stencil(nZBLDoAgDERP0z3SIyjew0SURgSD+Lu9kMZoXLhwN9O+tukAlrNpJg1SzDH4QW/URgNYgZTkjA4UkwJUgGXng+6DX1zLfmoymdXo17xh5zmRJ6Q42BWCfc2oJfdAr+Yv+AP9Cb7OJ3H/2JG1HNGz/84klThPVCc=);strokeColor=#ffffff;labelBackgroundColor=none;rounded=0;html=1;whiteSpace=wrap;" parent="1" vertex="1">
          <mxGeometry x="-141" y="-529" width="91" height="18" as="geometry" />
        </mxCell>
        <mxCell id="HCPk9M70dHxpPQTd53Pf-61" value="&lt;font style=&quot;font-size: 8px; font-family: simsun; color: rgb(83, 128, 46); direction: ltr; letter-spacing: 0px; line-height: 120%; opacity: 1;&quot;&gt;model_info.json更新通知&lt;br style=&quot;font-size: 8px;&quot;&gt;&lt;/font&gt;" style="vsdxID=56;edgeStyle=none;startArrow=none;endArrow=block;startSize=5;endSize=5;strokeColor=#B20000;spacingTop=0;spacingBottom=0;spacingLeft=0;spacingRight=0;verticalAlign=middle;html=1;labelBackgroundColor=#ffffff;rounded=0;align=center;strokeWidth=3;fontSize=8;entryX=0.439;entryY=0.003;entryDx=0;entryDy=0;entryPerimeter=0;fillColor=#e51400;" parent="1" target="3" edge="1">
          <mxGeometry x="-0.3119" relative="1" as="geometry">
            <mxPoint as="offset" />
            <Array as="points">
              <mxPoint x="-56" y="-600" />
            </Array>
            <mxPoint x="-240" y="-600" as="sourcePoint" />
            <mxPoint x="22" y="-552" as="targetPoint" />
          </mxGeometry>
        </mxCell>
        <mxCell id="HCPk9M70dHxpPQTd53Pf-62" value="&lt;font style=&quot;font-size:11px;font-family:SimSun;color:#ffffff;direction:ltr;letter-spacing:0px;line-height:120%;opacity:1&quot;&gt;阻力展示/修改&lt;br&gt;&lt;/font&gt;" style="verticalAlign=middle;align=center;vsdxID=25;fillColor=#5b9bd5;gradientColor=none;shape=stencil(nZBLDoAgDERP0z3SIyjew0SURgSD+Lu9kMZoXLhwN9O+tukAlrNpJg1SzDH4QW/URgNYgZTkjA4UkwJUgGXng+6DX1zLfmoymdXo17xh5zmRJ6Q42BWCfc2oJfdAr+Yv+AP9Cb7OJ3H/2JG1HNGz/84klThPVCc=);strokeColor=#ffffff;labelBackgroundColor=none;rounded=0;html=1;whiteSpace=wrap;" parent="1" vertex="1">
          <mxGeometry x="-141" y="-500" width="91" height="18" as="geometry" />
        </mxCell>
        <mxCell id="HCPk9M70dHxpPQTd53Pf-64" value="&lt;font style=&quot;font-size:11px;font-family:SimSun;color:#ffffff;direction:ltr;letter-spacing:0px;line-height:120%;opacity:1&quot;&gt;算法&lt;br&gt;&lt;/font&gt;" style="verticalAlign=middle;align=center;vsdxID=12;fillColor=#5b9bd5;gradientColor=none;shape=stencil(nZBLDoAgDERP0z3SIyjew0SURgSD+Lu9kMZoXLhwN9O+tukAlrNpJg1SzDH4QW/URgNYgZTkjA4UkwJUgGXng+6DX1zLfmoymdXo17xh5zmRJ6Q42BWCfc2oJfdAr+Yv+AP9Cb7OJ3H/2JG1HNGz/84klThPVCc=);strokeColor=#ffffff;labelBackgroundColor=none;rounded=0;html=1;whiteSpace=wrap;" parent="1" vertex="1">
          <mxGeometry x="-470" y="-596" width="70" height="18" as="geometry" />
        </mxCell>
        <mxCell id="HCPk9M70dHxpPQTd53Pf-65" value="&lt;font style=&quot;font-size:11px;font-family:SimSun;color:#ffffff;direction:ltr;letter-spacing:0px;line-height:120%;opacity:1&quot;&gt;测试数据&lt;br&gt;&lt;/font&gt;" style="verticalAlign=middle;align=center;vsdxID=14;fillColor=#5b9bd5;gradientColor=none;shape=stencil(nZBLDoAgDERP0z3SIyjew0SURgSD+Lu9kMZoXLhwN9O+tukAlrNpJg1SzDH4QW/URgNYgZTkjA4UkwJUgGXng+6DX1zLfmoymdXo17xh5zmRJ6Q42BWCfc2oJfdAr+Yv+AP9Cb7OJ3H/2JG1HNGz/84klThPVCc=);strokeColor=#ffffff;labelBackgroundColor=none;rounded=0;html=1;whiteSpace=wrap;" parent="1" vertex="1">
          <mxGeometry x="-335" y="-605" width="85" height="18" as="geometry" />
        </mxCell>
        <mxCell id="HCPk9M70dHxpPQTd53Pf-66" value="&lt;font style=&quot;font-size:11px;font-family:SimSun;color:#ffffff;direction:ltr;letter-spacing:0px;line-height:120%;opacity:1&quot;&gt;模型离线训练评估指标&lt;br&gt;&lt;/font&gt;" style="verticalAlign=middle;align=center;vsdxID=13;fillColor=#5b9bd5;gradientColor=none;shape=stencil(nZBLDoAgDERP0z3SIyjew0SURgSD+Lu9kMZoXLhwN9O+tukAlrNpJg1SzDH4QW/URgNYgZTkjA4UkwJUgGXng+6DX1zLfmoymdXo17xh5zmRJ6Q42BWCfc2oJfdAr+Yv+AP9Cb7OJ3H/2JG1HNGz/84klThPVCc=);strokeColor=#ffffff;labelBackgroundColor=none;rounded=0;html=1;whiteSpace=wrap;" parent="1" vertex="1">
          <mxGeometry x="-385" y="-560" width="135" height="18" as="geometry" />
        </mxCell>
        <mxCell id="HCPk9M70dHxpPQTd53Pf-79" value="" style="group" parent="1" vertex="1" connectable="0">
          <mxGeometry x="-415" y="-431" width="110" height="171" as="geometry" />
        </mxCell>
        <mxCell id="MmdjnHfE7uYEyz5K24KN-55" value="&lt;font style=&quot;font-size: 11px ; font-family: &amp;quot;simsun&amp;quot; ; color: #ffffff ; direction: ltr ; letter-spacing: 0px ; line-height: 120% ; opacity: 1&quot;&gt;文件云&lt;br&gt;&lt;/font&gt;" style="verticalAlign=top;align=center;vsdxID=4;fillColor=#FFCE9F;gradientColor=none;shape=stencil(nZBLDoAgDERP0z3SIyjew0SURgSD+Lu9kMZoXLhwN9O+tukAlrNpJg1SzDH4QW/URgNYgZTkjA4UkwJUgGXng+6DX1zLfmoymdXo17xh5zmRJ6Q42BWCfc2oJfdAr+Yv+AP9Cb7OJ3H/2JG1HNGz/84klThPVCc=);strokeColor=#ffffff;labelBackgroundColor=none;rounded=0;html=1;whiteSpace=wrap;" parent="HCPk9M70dHxpPQTd53Pf-79" vertex="1">
          <mxGeometry width="110" height="150" as="geometry" />
        </mxCell>
        <mxCell id="HCPk9M70dHxpPQTd53Pf-56" value="&lt;font style=&quot;font-size:11px;font-family:SimSun;color:#ffffff;direction:ltr;letter-spacing:0px;line-height:120%;opacity:1&quot;&gt;模型测试数据&lt;br&gt;&lt;/font&gt;" style="verticalAlign=middle;align=center;vsdxID=15;fillColor=#5b9bd5;gradientColor=none;shape=stencil(nZBLDoAgDERP0z3SIyjew0SURgSD+Lu9kMZoXLhwN9O+tukAlrNpJg1SzDH4QW/URgNYgZTkjA4UkwJUgGXng+6DX1zLfmoymdXo17xh5zmRJ6Q42BWCfc2oJfdAr+Yv+AP9Cb7OJ3H/2JG1HNGz/84klThPVCc=);strokeColor=#ffffff;labelBackgroundColor=none;rounded=0;html=1;whiteSpace=wrap;" parent="HCPk9M70dHxpPQTd53Pf-79" vertex="1">
          <mxGeometry x="16" y="102" width="78" height="18.15" as="geometry" />
        </mxCell>
        <mxCell id="HCPk9M70dHxpPQTd53Pf-77" value="&lt;font style=&quot;font-size:11px;font-family:SimSun;color:#ffffff;direction:ltr;letter-spacing:0px;line-height:120%;opacity:1&quot;&gt;模型文件&lt;br/&gt;&lt;/font&gt;" style="verticalAlign=middle;align=center;vsdxID=15;fillColor=#5b9bd5;gradientColor=none;shape=stencil(nZBLDoAgDERP0z3SIyjew0SURgSD+Lu9kMZoXLhwN9O+tukAlrNpJg1SzDH4QW/URgNYgZTkjA4UkwJUgGXng+6DX1zLfmoymdXo17xh5zmRJ6Q42BWCfc2oJfdAr+Yv+AP9Cb7OJ3H/2JG1HNGz/84klThPVCc=);strokeColor=#ffffff;labelBackgroundColor=none;rounded=0;html=1;whiteSpace=wrap;" parent="HCPk9M70dHxpPQTd53Pf-79" vertex="1">
          <mxGeometry x="16" y="54" width="78" height="19" as="geometry" />
        </mxCell>
        <mxCell id="HCPk9M70dHxpPQTd53Pf-78" value="&lt;font style=&quot;font-size:11px;font-family:SimSun;color:#ffffff;direction:ltr;letter-spacing:0px;line-height:120%;opacity:1&quot;&gt;模型配置文件&lt;br&gt;&lt;/font&gt;" style="verticalAlign=middle;align=center;vsdxID=15;fillColor=#5b9bd5;gradientColor=none;shape=stencil(nZBLDoAgDERP0z3SIyjew0SURgSD+Lu9kMZoXLhwN9O+tukAlrNpJg1SzDH4QW/URgNYgZTkjA4UkwJUgGXng+6DX1zLfmoymdXo17xh5zmRJ6Q42BWCfc2oJfdAr+Yv+AP9Cb7OJ3H/2JG1HNGz/84klThPVCc=);strokeColor=#ffffff;labelBackgroundColor=none;rounded=0;html=1;whiteSpace=wrap;" parent="HCPk9M70dHxpPQTd53Pf-79" vertex="1">
          <mxGeometry x="16" y="78" width="78" height="19" as="geometry" />
        </mxCell>
        <mxCell id="HCPk9M70dHxpPQTd53Pf-128" value="&lt;font style=&quot;font-size:11px;font-family:SimSun;color:#ffffff;direction:ltr;letter-spacing:0px;line-height:120%;opacity:1&quot;&gt;model_info&lt;br&gt;&lt;/font&gt;" style="verticalAlign=middle;align=center;vsdxID=15;fillColor=#5b9bd5;gradientColor=none;shape=stencil(nZBLDoAgDERP0z3SIyjew0SURgSD+Lu9kMZoXLhwN9O+tukAlrNpJg1SzDH4QW/URgNYgZTkjA4UkwJUgGXng+6DX1zLfmoymdXo17xh5zmRJ6Q42BWCfc2oJfdAr+Yv+AP9Cb7OJ3H/2JG1HNGz/84klThPVCc=);strokeColor=#ffffff;labelBackgroundColor=none;rounded=0;html=1;whiteSpace=wrap;" parent="HCPk9M70dHxpPQTd53Pf-79" vertex="1">
          <mxGeometry x="16" y="32.93" width="78" height="17.07" as="geometry" />
        </mxCell>
        <mxCell id="HCPk9M70dHxpPQTd53Pf-140" value="&lt;font style=&quot;font-size:11px;font-family:SimSun;color:#ffffff;direction:ltr;letter-spacing:0px;line-height:120%;opacity:1&quot;&gt;模型元数据&lt;br&gt;&lt;/font&gt;" style="verticalAlign=middle;align=center;vsdxID=15;fillColor=#5b9bd5;gradientColor=none;shape=stencil(nZBLDoAgDERP0z3SIyjew0SURgSD+Lu9kMZoXLhwN9O+tukAlrNpJg1SzDH4QW/URgNYgZTkjA4UkwJUgGXng+6DX1zLfmoymdXo17xh5zmRJ6Q42BWCfc2oJfdAr+Yv+AP9Cb7OJ3H/2JG1HNGz/84klThPVCc=);strokeColor=#ffffff;labelBackgroundColor=none;rounded=0;html=1;whiteSpace=wrap;" parent="HCPk9M70dHxpPQTd53Pf-79" vertex="1">
          <mxGeometry x="16" y="125" width="78" height="18.15" as="geometry" />
        </mxCell>
        <mxCell id="HCPk9M70dHxpPQTd53Pf-80" value="&lt;font style=&quot;font-size:11px;font-family:SimSun;color:#ffffff;direction:ltr;letter-spacing:0px;line-height:120%;opacity:1&quot;&gt;大数据平台&lt;br&gt;&lt;/font&gt;" style="verticalAlign=top;align=center;vsdxID=39;fillColor=#FFCE9F;gradientColor=none;shape=stencil(nZBLDoAgDERP0z3SIyjew0SURgSD+Lu9kMZoXLhwN9O+tukAlrNpJg1SzDH4QW/URgNYgZTkjA4UkwJUgGXng+6DX1zLfmoymdXo17xh5zmRJ6Q42BWCfc2oJfdAr+Yv+AP9Cb7OJ3H/2JG1HNGz/84klThPVCc=);strokeColor=#ffffff;labelBackgroundColor=none;rounded=0;html=1;whiteSpace=wrap;" parent="1" vertex="1">
          <mxGeometry x="100" y="-990" width="210" height="140" as="geometry" />
        </mxCell>
        <mxCell id="HCPk9M70dHxpPQTd53Pf-81" value="&lt;font style=&quot;font-size:11px;font-family:SimSun;color:#ffffff;direction:ltr;letter-spacing:0px;line-height:120%;opacity:1&quot;&gt;车况表&lt;br&gt;&lt;/font&gt;" style="verticalAlign=middle;align=center;vsdxID=20;fillColor=#5b9bd5;gradientColor=none;shape=stencil(nZBLDoAgDERP0z3SIyjew0SURgSD+Lu9kMZoXLhwN9O+tukAlrNpJg1SzDH4QW/URgNYgZTkjA4UkwJUgGXng+6DX1zLfmoymdXo17xh5zmRJ6Q42BWCfc2oJfdAr+Yv+AP9Cb7OJ3H/2JG1HNGz/84klThPVCc=);strokeColor=#ffffff;labelBackgroundColor=none;rounded=0;html=1;whiteSpace=wrap;" parent="1" vertex="1">
          <mxGeometry x="209.5" y="-915" width="91" height="18" as="geometry" />
        </mxCell>
        <mxCell id="HCPk9M70dHxpPQTd53Pf-82" value="&lt;font style=&quot;font-size:11px;font-family:SimSun;color:#ffffff;direction:ltr;letter-spacing:0px;line-height:120%;opacity:1&quot;&gt;用户行为宽表&lt;br&gt;&lt;/font&gt;" style="verticalAlign=middle;align=center;vsdxID=20;fillColor=#5b9bd5;gradientColor=none;shape=stencil(nZBLDoAgDERP0z3SIyjew0SURgSD+Lu9kMZoXLhwN9O+tukAlrNpJg1SzDH4QW/URgNYgZTkjA4UkwJUgGXng+6DX1zLfmoymdXo17xh5zmRJ6Q42BWCfc2oJfdAr+Yv+AP9Cb7OJ3H/2JG1HNGz/84klThPVCc=);strokeColor=#ffffff;labelBackgroundColor=none;rounded=0;html=1;whiteSpace=wrap;" parent="1" vertex="1">
          <mxGeometry x="105.75" y="-915" width="91" height="18" as="geometry" />
        </mxCell>
        <mxCell id="HCPk9M70dHxpPQTd53Pf-83" value="&lt;font style=&quot;font-size:11px;font-family:SimSun;color:#ffffff;direction:ltr;letter-spacing:0px;line-height:120%;opacity:1&quot;&gt;模型训练数据表&lt;br&gt;&lt;/font&gt;" style="verticalAlign=middle;align=center;vsdxID=20;fillColor=#5b9bd5;gradientColor=none;shape=stencil(nZBLDoAgDERP0z3SIyjew0SURgSD+Lu9kMZoXLhwN9O+tukAlrNpJg1SzDH4QW/URgNYgZTkjA4UkwJUgGXng+6DX1zLfmoymdXo17xh5zmRJ6Q42BWCfc2oJfdAr+Yv+AP9Cb7OJ3H/2JG1HNGz/84klThPVCc=);strokeColor=#ffffff;labelBackgroundColor=none;rounded=0;html=1;whiteSpace=wrap;" parent="1" vertex="1">
          <mxGeometry x="105.75" y="-962" width="91" height="18" as="geometry" />
        </mxCell>
        <mxCell id="HCPk9M70dHxpPQTd53Pf-85" value="&lt;font color=&quot;#ffffff&quot;&gt;推荐阻力表&lt;/font&gt;" style="verticalAlign=middle;align=center;vsdxID=20;fillColor=#5b9bd5;gradientColor=none;shape=stencil(nZBLDoAgDERP0z3SIyjew0SURgSD+Lu9kMZoXLhwN9O+tukAlrNpJg1SzDH4QW/URgNYgZTkjA4UkwJUgGXng+6DX1zLfmoymdXo17xh5zmRJ6Q42BWCfc2oJfdAr+Yv+AP9Cb7OJ3H/2JG1HNGz/84klThPVCc=);strokeColor=#ffffff;labelBackgroundColor=none;rounded=0;html=1;whiteSpace=wrap;" parent="1" vertex="1">
          <mxGeometry x="105.75" y="-938" width="91" height="18" as="geometry" />
        </mxCell>
        <mxCell id="HCPk9M70dHxpPQTd53Pf-86" value="&lt;font style=&quot;font-size:11px;font-family:SimSun;color:#ffffff;direction:ltr;letter-spacing:0px;line-height:120%;opacity:1&quot;&gt;DS临时表&lt;br&gt;&lt;/font&gt;" style="verticalAlign=middle;align=center;vsdxID=20;fillColor=#5b9bd5;gradientColor=none;shape=stencil(nZBLDoAgDERP0z3SIyjew0SURgSD+Lu9kMZoXLhwN9O+tukAlrNpJg1SzDH4QW/URgNYgZTkjA4UkwJUgGXng+6DX1zLfmoymdXo17xh5zmRJ6Q42BWCfc2oJfdAr+Yv+AP9Cb7OJ3H/2JG1HNGz/84klThPVCc=);strokeColor=#ffffff;labelBackgroundColor=none;rounded=0;html=1;whiteSpace=wrap;" parent="1" vertex="1">
          <mxGeometry x="209.5" y="-938" width="91" height="18" as="geometry" />
        </mxCell>
        <mxCell id="HCPk9M70dHxpPQTd53Pf-90" style="vsdxID=58;edgeStyle=none;startArrow=none;endArrow=block;startSize=5;endSize=5;strokeColor=#6ca43e;spacingTop=0;spacingBottom=0;spacingLeft=0;spacingRight=0;verticalAlign=middle;html=1;labelBackgroundColor=#ffffff;rounded=0;exitX=1;exitY=0.4;exitDx=0;exitDy=0;exitPerimeter=0;strokeWidth=4;" parent="1" source="7" edge="1">
          <mxGeometry relative="1" as="geometry">
            <mxPoint as="offset" />
            <Array as="points">
              <mxPoint x="130" y="-760" />
            </Array>
            <mxPoint x="98" y="-898" as="sourcePoint" />
            <mxPoint x="130" y="-850" as="targetPoint" />
          </mxGeometry>
        </mxCell>
        <mxCell id="HCPk9M70dHxpPQTd53Pf-101" value="存储&lt;br style=&quot;border-color: var(--border-color); font-size: 8px;&quot;&gt;&lt;div style=&quot;text-align: left;&quot;&gt;&lt;span style=&quot;font-size: 8px;&quot;&gt;1. 训练数据&lt;/span&gt;&lt;/div&gt;&lt;span style=&quot;font-size: 8px;&quot;&gt;&lt;div style=&quot;text-align: left;&quot;&gt;2. 推荐阻力&lt;/div&gt;&lt;/span&gt;&lt;span style=&quot;font-size: 8px;&quot;&gt;&lt;div style=&quot;text-align: left;&quot;&gt;3. 个性化参数&lt;/div&gt;&lt;/span&gt;&lt;span style=&quot;font-size: 8px;&quot;&gt;&lt;div style=&quot;text-align: left;&quot;&gt;4. DS临时表&lt;/div&gt;&lt;div style=&quot;text-align: left;&quot;&gt;5.仲裁规则&lt;/div&gt;&lt;div style=&quot;text-align: left;&quot;&gt;6. 数据预处理&lt;/div&gt;&lt;div style=&quot;text-align: left;&quot;&gt;配置文件&lt;/div&gt;&lt;/span&gt;" style="edgeLabel;html=1;align=center;verticalAlign=middle;resizable=0;points=[];" parent="HCPk9M70dHxpPQTd53Pf-90" vertex="1" connectable="0">
          <mxGeometry x="-0.134" y="-1" relative="1" as="geometry">
            <mxPoint as="offset" />
          </mxGeometry>
        </mxCell>
        <mxCell id="HCPk9M70dHxpPQTd53Pf-95" value="" style="group" parent="1" vertex="1" connectable="0">
          <mxGeometry x="250" y="-737" width="107" height="96" as="geometry" />
        </mxCell>
        <mxCell id="2" value="&lt;font style=&quot;font-size:11px;font-family:SimSun;color:#ffffff;direction:ltr;letter-spacing:0px;line-height:120%;opacity:1&quot;&gt;开放-API&lt;br&gt;&lt;/font&gt;" style="verticalAlign=top;align=center;vsdxID=39;fillColor=#FFCE9F;gradientColor=none;shape=stencil(nZBLDoAgDERP0z3SIyjew0SURgSD+Lu9kMZoXLhwN9O+tukAlrNpJg1SzDH4QW/URgNYgZTkjA4UkwJUgGXng+6DX1zLfmoymdXo17xh5zmRJ6Q42BWCfc2oJfdAr+Yv+AP9Cb7OJ3H/2JG1HNGz/84klThPVCc=);strokeColor=#ffffff;labelBackgroundColor=none;rounded=0;html=1;whiteSpace=wrap;" parent="HCPk9M70dHxpPQTd53Pf-95" vertex="1">
          <mxGeometry width="107" height="96" as="geometry" />
        </mxCell>
        <mxCell id="19" value="&lt;font style=&quot;font-size:11px;font-family:SimSun;color:#ffffff;direction:ltr;letter-spacing:0px;line-height:120%;opacity:1&quot;&gt;Doris数据库&lt;br&gt;&lt;/font&gt;" style="verticalAlign=middle;align=center;vsdxID=20;fillColor=#5b9bd5;gradientColor=none;shape=stencil(nZBLDoAgDERP0z3SIyjew0SURgSD+Lu9kMZoXLhwN9O+tukAlrNpJg1SzDH4QW/URgNYgZTkjA4UkwJUgGXng+6DX1zLfmoymdXo17xh5zmRJ6Q42BWCfc2oJfdAr+Yv+AP9Cb7OJ3H/2JG1HNGz/84klThPVCc=);strokeColor=#ffffff;labelBackgroundColor=none;rounded=0;html=1;whiteSpace=wrap;" parent="HCPk9M70dHxpPQTd53Pf-95" vertex="1">
          <mxGeometry x="8" y="27" width="91" height="23" as="geometry" />
        </mxCell>
        <mxCell id="20" value="&lt;font style=&quot;font-size:11px;font-family:SimSun;color:#ffffff;direction:ltr;letter-spacing:0px;line-height:120%;opacity:1&quot;&gt;Data-API接口&lt;br&gt;&lt;/font&gt;" style="verticalAlign=middle;align=center;vsdxID=21;fillColor=#5b9bd5;gradientColor=none;shape=stencil(nZBLDoAgDERP0z3SIyjew0SURgSD+Lu9kMZoXLhwN9O+tukAlrNpJg1SzDH4QW/URgNYgZTkjA4UkwJUgGXng+6DX1zLfmoymdXo17xh5zmRJ6Q42BWCfc2oJfdAr+Yv+AP9Cb7OJ3H/2JG1HNGz/84klThPVCc=);strokeColor=#ffffff;labelBackgroundColor=none;rounded=0;html=1;whiteSpace=wrap;" parent="HCPk9M70dHxpPQTd53Pf-95" vertex="1">
          <mxGeometry x="8" y="57" width="91" height="25" as="geometry" />
        </mxCell>
        <mxCell id="HCPk9M70dHxpPQTd53Pf-107" style="vsdxID=58;edgeStyle=none;startArrow=none;endArrow=block;startSize=5;endSize=5;strokeColor=#36393d;spacingTop=0;spacingBottom=0;spacingLeft=0;spacingRight=0;verticalAlign=middle;html=1;labelBackgroundColor=#ffffff;rounded=0;exitX=-0.005;exitY=0.516;exitDx=0;exitDy=0;exitPerimeter=0;entryX=0.534;entryY=0.013;entryDx=0;entryDy=0;entryPerimeter=0;fillColor=#ffff88;strokeWidth=4;" parent="1" source="HCPk9M70dHxpPQTd53Pf-80" edge="1">
          <mxGeometry relative="1" as="geometry">
            <mxPoint as="offset" />
            <Array as="points">
              <mxPoint x="-45" y="-918" />
            </Array>
            <mxPoint x="90" y="-918" as="sourcePoint" />
            <mxPoint x="-44" y="-828" as="targetPoint" />
          </mxGeometry>
        </mxCell>
        <mxCell id="HCPk9M70dHxpPQTd53Pf-108" value="&lt;font style=&quot;font-size: 8px;&quot;&gt;加载&lt;br style=&quot;font-size: 8px;&quot;&gt;&lt;/font&gt;&lt;div style=&quot;text-align: left; font-size: 8px;&quot;&gt;&lt;font style=&quot;font-size: 8px;&quot;&gt;1. 用户行为表&lt;/font&gt;&lt;/div&gt;&lt;div style=&quot;text-align: left; font-size: 8px;&quot;&gt;&lt;font style=&quot;font-size: 8px;&quot;&gt;2. 车况表&lt;/font&gt;&lt;/div&gt;&lt;div style=&quot;text-align: left; font-size: 8px;&quot;&gt;&lt;font style=&quot;font-size: 8px;&quot;&gt;3. DS临时表&lt;/font&gt;&lt;/div&gt;" style="edgeLabel;html=1;align=center;verticalAlign=middle;resizable=0;points=[];fontSize=8;" parent="HCPk9M70dHxpPQTd53Pf-107" vertex="1" connectable="0">
          <mxGeometry x="-0.1926" relative="1" as="geometry">
            <mxPoint as="offset" />
          </mxGeometry>
        </mxCell>
        <mxCell id="HCPk9M70dHxpPQTd53Pf-111" style="edgeStyle=none;rounded=0;orthogonalLoop=1;jettySize=auto;html=1;fontSize=8;strokeColor=#36393d;fillColor=#ffff88;entryX=0.937;entryY=-0.012;entryDx=0;entryDy=0;entryPerimeter=0;" parent="1" edge="1">
          <mxGeometry relative="1" as="geometry">
            <mxPoint x="299.70000000000005" y="-362" as="targetPoint" />
            <mxPoint x="299.70000000000005" y="-640" as="sourcePoint" />
          </mxGeometry>
        </mxCell>
        <mxCell id="HCPk9M70dHxpPQTd53Pf-112" value="数据加载" style="edgeLabel;html=1;align=center;verticalAlign=middle;resizable=0;points=[];fontSize=8;fontColor=#6CA43E;" parent="HCPk9M70dHxpPQTd53Pf-111" vertex="1" connectable="0">
          <mxGeometry x="-0.0818" y="-1" relative="1" as="geometry">
            <mxPoint as="offset" />
          </mxGeometry>
        </mxCell>
        <mxCell id="HCPk9M70dHxpPQTd53Pf-113" style="edgeStyle=none;rounded=0;orthogonalLoop=1;jettySize=auto;html=1;fontSize=8;strokeColor=#36393d;fillColor=#ffff88;entryX=0.937;entryY=-0.012;entryDx=0;entryDy=0;entryPerimeter=0;" parent="1" edge="1">
          <mxGeometry relative="1" as="geometry">
            <mxPoint x="300.5" y="-363" as="targetPoint" />
            <mxPoint x="300.5" y="-641" as="sourcePoint" />
          </mxGeometry>
        </mxCell>
        <mxCell id="HCPk9M70dHxpPQTd53Pf-114" value="数据加载" style="edgeLabel;html=1;align=center;verticalAlign=middle;resizable=0;points=[];fontSize=8;fontColor=#6CA43E;" parent="HCPk9M70dHxpPQTd53Pf-113" vertex="1" connectable="0">
          <mxGeometry x="-0.0818" y="-1" relative="1" as="geometry">
            <mxPoint as="offset" />
          </mxGeometry>
        </mxCell>
        <mxCell id="HCPk9M70dHxpPQTd53Pf-115" style="edgeStyle=none;rounded=0;orthogonalLoop=1;jettySize=auto;html=1;fontSize=8;strokeColor=#36393d;fillColor=#ffff88;entryX=0.937;entryY=-0.012;entryDx=0;entryDy=0;entryPerimeter=0;strokeWidth=4;" parent="1" edge="1">
          <mxGeometry relative="1" as="geometry">
            <mxPoint x="300.95000000000005" y="-363" as="targetPoint" />
            <mxPoint x="300.95000000000005" y="-641" as="sourcePoint" />
          </mxGeometry>
        </mxCell>
        <mxCell id="HCPk9M70dHxpPQTd53Pf-116" value="数据加载" style="edgeLabel;html=1;align=center;verticalAlign=middle;resizable=0;points=[];fontSize=8;fontColor=#6CA43E;" parent="HCPk9M70dHxpPQTd53Pf-115" vertex="1" connectable="0">
          <mxGeometry x="-0.0818" y="-1" relative="1" as="geometry">
            <mxPoint as="offset" />
          </mxGeometry>
        </mxCell>
        <mxCell id="HCPk9M70dHxpPQTd53Pf-117" style="edgeStyle=none;rounded=0;orthogonalLoop=1;jettySize=auto;html=1;fontSize=8;strokeColor=#36393d;fillColor=#ffff88;exitX=0.88;exitY=1;exitDx=0;exitDy=0;exitPerimeter=0;strokeWidth=4;" parent="1" edge="1">
          <mxGeometry relative="1" as="geometry">
            <mxPoint x="295.45000000000005" y="-740" as="targetPoint" />
            <mxPoint x="295.45000000000005" y="-850" as="sourcePoint" />
            <Array as="points" />
          </mxGeometry>
        </mxCell>
        <mxCell id="HCPk9M70dHxpPQTd53Pf-118" value="加载个性化、阻力" style="edgeLabel;html=1;align=center;verticalAlign=middle;resizable=0;points=[];fontSize=8;fontColor=#6CA43E;" parent="HCPk9M70dHxpPQTd53Pf-117" vertex="1" connectable="0">
          <mxGeometry x="0.1629" y="-2" relative="1" as="geometry">
            <mxPoint as="offset" />
          </mxGeometry>
        </mxCell>
        <mxCell id="HCPk9M70dHxpPQTd53Pf-119" style="edgeStyle=none;rounded=0;orthogonalLoop=1;jettySize=auto;html=1;entryX=0;entryY=0.879;entryDx=0;entryDy=0;entryPerimeter=0;fontSize=8;fontColor=#000000;strokeColor=#36393d;fillColor=#ffff88;strokeWidth=4;exitX=0.491;exitY=0.995;exitDx=0;exitDy=0;exitPerimeter=0;" parent="1" source="MmdjnHfE7uYEyz5K24KN-55" target="5" edge="1">
          <mxGeometry relative="1" as="geometry">
            <Array as="points">
              <mxPoint x="-361" y="-247" />
              <mxPoint x="20" y="-247" />
            </Array>
            <mxPoint x="-303.85" y="-380.8237179487178" as="sourcePoint" />
            <mxPoint x="-47.12199999999996" y="-437.84000000000015" as="targetPoint" />
          </mxGeometry>
        </mxCell>
        <mxCell id="HCPk9M70dHxpPQTd53Pf-120" value="加载模型、配置、测试数据" style="edgeLabel;html=1;align=center;verticalAlign=middle;resizable=0;points=[];fontSize=8;fontColor=#6CA43E;" parent="HCPk9M70dHxpPQTd53Pf-119" vertex="1" connectable="0">
          <mxGeometry x="-0.0981" relative="1" as="geometry">
            <mxPoint as="offset" />
          </mxGeometry>
        </mxCell>
        <mxCell id="HCPk9M70dHxpPQTd53Pf-121" style="vsdxID=58;edgeStyle=none;startArrow=none;endArrow=block;startSize=5;endSize=5;strokeColor=#36393d;spacingTop=0;spacingBottom=0;spacingLeft=0;spacingRight=0;verticalAlign=middle;html=1;labelBackgroundColor=#ffffff;rounded=0;entryX=0.214;entryY=0.004;entryDx=0;entryDy=0;entryPerimeter=0;exitX=-0.005;exitY=0.212;exitDx=0;exitDy=0;exitPerimeter=0;fillColor=#ffff88;strokeWidth=4;" parent="1" source="HCPk9M70dHxpPQTd53Pf-80" edge="1">
          <mxGeometry relative="1" as="geometry">
            <mxPoint as="offset" />
            <Array as="points">
              <mxPoint x="-433" y="-960" />
              <mxPoint x="-433" y="-728" />
              <mxPoint x="-433" y="-718" />
            </Array>
            <mxPoint x="91" y="-978.0799999999999" as="sourcePoint" />
            <mxPoint x="-432.6" y="-691" as="targetPoint" />
          </mxGeometry>
        </mxCell>
        <mxCell id="HCPk9M70dHxpPQTd53Pf-122" value="&lt;font style=&quot;font-size: 8px;&quot;&gt;加载&lt;span style=&quot;text-align: left;&quot;&gt;训练数据&lt;/span&gt;&lt;br&gt;&lt;/font&gt;" style="edgeLabel;html=1;align=center;verticalAlign=middle;resizable=0;points=[];fontSize=8;" parent="HCPk9M70dHxpPQTd53Pf-121" vertex="1" connectable="0">
          <mxGeometry x="-0.1926" relative="1" as="geometry">
            <mxPoint as="offset" />
          </mxGeometry>
        </mxCell>
        <mxCell id="HCPk9M70dHxpPQTd53Pf-124" style="vsdxID=58;edgeStyle=none;startArrow=none;endArrow=block;startSize=5;endSize=5;strokeColor=#36393d;spacingTop=0;spacingBottom=0;spacingLeft=0;spacingRight=0;verticalAlign=middle;html=1;labelBackgroundColor=#ffffff;rounded=0;fillColor=#ffff88;strokeWidth=4;exitX=0.362;exitY=1.018;exitDx=0;exitDy=0;exitPerimeter=0;" parent="1" source="HCPk9M70dHxpPQTd53Pf-80" edge="1">
          <mxGeometry relative="1" as="geometry">
            <mxPoint as="offset" />
            <Array as="points">
              <mxPoint x="177" y="-500" />
            </Array>
            <mxPoint x="170" y="-840" as="sourcePoint" />
            <mxPoint x="70" y="-500" as="targetPoint" />
          </mxGeometry>
        </mxCell>
        <mxCell id="HCPk9M70dHxpPQTd53Pf-125" value="&lt;font style=&quot;font-size: 8px;&quot;&gt;加载&lt;br style=&quot;font-size: 8px;&quot;&gt;&lt;/font&gt;&lt;div style=&quot;text-align: left; font-size: 8px;&quot;&gt;&lt;font style=&quot;font-size: 8px;&quot;&gt;1. 个性化参数&lt;/font&gt;&lt;/div&gt;&lt;div style=&quot;text-align: left; font-size: 8px;&quot;&gt;&lt;font style=&quot;font-size: 8px;&quot;&gt;2. 推荐阻力&lt;/font&gt;&lt;/div&gt;&lt;div style=&quot;text-align: left; font-size: 8px;&quot;&gt;&lt;font style=&quot;font-size: 8px;&quot;&gt;3. 加载vin车型对应表&lt;/font&gt;&lt;/div&gt;" style="edgeLabel;html=1;align=center;verticalAlign=middle;resizable=0;points=[];fontSize=8;" parent="HCPk9M70dHxpPQTd53Pf-124" vertex="1" connectable="0">
          <mxGeometry x="-0.1926" relative="1" as="geometry">
            <mxPoint x="-21" y="90" as="offset" />
          </mxGeometry>
        </mxCell>
        <mxCell id="HCPk9M70dHxpPQTd53Pf-127" value="" style="group" parent="1" vertex="1" connectable="0">
          <mxGeometry x="-180" y="-828" width="250" height="170" as="geometry" />
        </mxCell>
        <mxCell id="7" value="&lt;font style=&quot;font-size: 11px; font-family: SimSun; direction: ltr; letter-spacing: 0px; line-height: 120%; opacity: 1;&quot;&gt;DS调度系统&lt;br&gt;&lt;/font&gt;" style="verticalAlign=top;align=center;vsdxID=38;fillColor=#cdeb8b;shape=stencil(nZBLDoAgDERP0z3SIyjew0SURgSD+Lu9kMZoXLhwN9O+tukAlrNpJg1SzDH4QW/URgNYgZTkjA4UkwJUgGXng+6DX1zLfmoymdXo17xh5zmRJ6Q42BWCfc2oJfdAr+Yv+AP9Cb7OJ3H/2JG1HNGz/84klThPVCc=);strokeColor=#36393d;labelBackgroundColor=none;rounded=0;html=1;whiteSpace=wrap;fontColor=#000000;" parent="HCPk9M70dHxpPQTd53Pf-127" vertex="1">
          <mxGeometry width="250" height="170" as="geometry" />
        </mxCell>
        <mxCell id="8" value="&lt;font style=&quot;font-size:11px;font-family:SimSun;color:#ffffff;direction:ltr;letter-spacing:0px;line-height:120%;opacity:1&quot;&gt;数据自动打标签&lt;br/&gt;&lt;/font&gt;" style="verticalAlign=middle;align=center;vsdxID=6;fillColor=#5b9bd5;gradientColor=none;shape=stencil(nZBLDoAgDERP0z3SIyjew0SURgSD+Lu9kMZoXLhwN9O+tukAlrNpJg1SzDH4QW/URgNYgZTkjA4UkwJUgGXng+6DX1zLfmoymdXo17xh5zmRJ6Q42BWCfc2oJfdAr+Yv+AP9Cb7OJ3H/2JG1HNGz/84klThPVCc=);strokeColor=#ffffff;labelBackgroundColor=none;rounded=0;html=1;whiteSpace=wrap;" parent="HCPk9M70dHxpPQTd53Pf-127" vertex="1">
          <mxGeometry x="20" y="92" width="100" height="18" as="geometry" />
        </mxCell>
        <mxCell id="10" value="&lt;font style=&quot;font-size:11px;font-family:SimSun;color:#ffffff;direction:ltr;letter-spacing:0px;line-height:120%;opacity:1&quot;&gt;场景大脑业务宽表&lt;br&gt;&lt;/font&gt;" style="verticalAlign=middle;align=center;vsdxID=9;fillColor=#5b9bd5;gradientColor=none;shape=stencil(nZBLDoAgDERP0z3SIyjew0SURgSD+Lu9kMZoXLhwN9O+tukAlrNpJg1SzDH4QW/URgNYgZTkjA4UkwJUgGXng+6DX1zLfmoymdXo17xh5zmRJ6Q42BWCfc2oJfdAr+Yv+AP9Cb7OJ3H/2JG1HNGz/84klThPVCc=);strokeColor=#ffffff;labelBackgroundColor=none;rounded=0;html=1;whiteSpace=wrap;" parent="HCPk9M70dHxpPQTd53Pf-127" vertex="1">
          <mxGeometry x="20" y="32" width="100" height="18" as="geometry" />
        </mxCell>
        <mxCell id="18" value="&lt;font style=&quot;font-size:11px;font-family:SimSun;color:#ffffff;direction:ltr;letter-spacing:0px;line-height:120%;opacity:1&quot;&gt;推荐阻力&lt;br&gt;&lt;/font&gt;" style="verticalAlign=middle;align=center;vsdxID=19;fillColor=#5b9bd5;gradientColor=none;shape=stencil(nZBLDoAgDERP0z3SIyjew0SURgSD+Lu9kMZoXLhwN9O+tukAlrNpJg1SzDH4QW/URgNYgZTkjA4UkwJUgGXng+6DX1zLfmoymdXo17xh5zmRJ6Q42BWCfc2oJfdAr+Yv+AP9Cb7OJ3H/2JG1HNGz/84klThPVCc=);strokeColor=#ffffff;labelBackgroundColor=none;rounded=0;html=1;whiteSpace=wrap;" parent="HCPk9M70dHxpPQTd53Pf-127" vertex="1">
          <mxGeometry x="134" y="92" width="96" height="18" as="geometry" />
        </mxCell>
        <mxCell id="37" value="&lt;font style=&quot;font-size: 11px; color: rgb(255, 255, 255); direction: ltr; letter-spacing: 0px; line-height: 120%; opacity: 1;&quot;&gt;&lt;font face=&quot;SimSun&quot;&gt;训练数据&lt;/font&gt;&lt;br&gt;&lt;/font&gt;" style="verticalAlign=middle;align=center;vsdxID=53;fillColor=#5b9bd5;gradientColor=none;shape=stencil(nZBLDoAgDERP0z3SIyjew0SURgSD+Lu9kMZoXLhwN9O+tukAlrNpJg1SzDH4QW/URgNYgZTkjA4UkwJUgGXng+6DX1zLfmoymdXo17xh5zmRJ6Q42BWCfc2oJfdAr+Yv+AP9Cb7OJ3H/2JG1HNGz/84klThPVCc=);strokeColor=#ffffff;labelBackgroundColor=none;rounded=0;html=1;whiteSpace=wrap;" parent="HCPk9M70dHxpPQTd53Pf-127" vertex="1">
          <mxGeometry x="134" y="32" width="96" height="18" as="geometry" />
        </mxCell>
        <mxCell id="39" value="&lt;font style=&quot;font-size:11px;font-family:SimSun;color:#ffffff;direction:ltr;letter-spacing:0px;line-height:120%;opacity:1&quot;&gt;个性化参数&lt;br&gt;&lt;/font&gt;" style="verticalAlign=middle;align=center;vsdxID=57;fillColor=#5b9bd5;gradientColor=none;shape=stencil(nZBLDoAgDERP0z3SIyjew0SURgSD+Lu9kMZoXLhwN9O+tukAlrNpJg1SzDH4QW/URgNYgZTkjA4UkwJUgGXng+6DX1zLfmoymdXo17xh5zmRJ6Q42BWCfc2oJfdAr+Yv+AP9Cb7OJ3H/2JG1HNGz/84klThPVCc=);strokeColor=#ffffff;labelBackgroundColor=none;rounded=0;html=1;whiteSpace=wrap;" parent="HCPk9M70dHxpPQTd53Pf-127" vertex="1">
          <mxGeometry x="134" y="62" width="96" height="18" as="geometry" />
        </mxCell>
        <mxCell id="HCPk9M70dHxpPQTd53Pf-87" value="&lt;font style=&quot;font-size:11px;font-family:SimSun;color:#ffffff;direction:ltr;letter-spacing:0px;line-height:120%;opacity:1&quot;&gt;模型监控&lt;br&gt;&lt;/font&gt;" style="verticalAlign=middle;align=center;vsdxID=6;fillColor=#5b9bd5;gradientColor=none;shape=stencil(nZBLDoAgDERP0z3SIyjew0SURgSD+Lu9kMZoXLhwN9O+tukAlrNpJg1SzDH4QW/URgNYgZTkjA4UkwJUgGXng+6DX1zLfmoymdXo17xh5zmRJ6Q42BWCfc2oJfdAr+Yv+AP9Cb7OJ3H/2JG1HNGz/84klThPVCc=);strokeColor=#ffffff;labelBackgroundColor=none;rounded=0;html=1;whiteSpace=wrap;" parent="HCPk9M70dHxpPQTd53Pf-127" vertex="1">
          <mxGeometry x="20" y="119" width="100" height="18" as="geometry" />
        </mxCell>
        <mxCell id="HCPk9M70dHxpPQTd53Pf-88" value="&lt;font style=&quot;font-size:11px;font-family:SimSun;color:#ffffff;direction:ltr;letter-spacing:0px;line-height:120%;opacity:1&quot;&gt;数据预处理&lt;br&gt;&lt;/font&gt;" style="verticalAlign=middle;align=center;vsdxID=6;fillColor=#5b9bd5;gradientColor=none;shape=stencil(nZBLDoAgDERP0z3SIyjew0SURgSD+Lu9kMZoXLhwN9O+tukAlrNpJg1SzDH4QW/URgNYgZTkjA4UkwJUgGXng+6DX1zLfmoymdXo17xh5zmRJ6Q42BWCfc2oJfdAr+Yv+AP9Cb7OJ3H/2JG1HNGz/84klThPVCc=);strokeColor=#ffffff;labelBackgroundColor=none;rounded=0;html=1;whiteSpace=wrap;" parent="HCPk9M70dHxpPQTd53Pf-127" vertex="1">
          <mxGeometry x="20" y="62" width="100" height="18" as="geometry" />
        </mxCell>
        <mxCell id="HCPk9M70dHxpPQTd53Pf-89" value="&lt;font style=&quot;font-size:11px;font-family:SimSun;color:#ffffff;direction:ltr;letter-spacing:0px;line-height:120%;opacity:1&quot;&gt;streamlit页面&lt;br&gt;&lt;/font&gt;" style="verticalAlign=middle;align=center;vsdxID=19;fillColor=#5b9bd5;gradientColor=none;shape=stencil(nZBLDoAgDERP0z3SIyjew0SURgSD+Lu9kMZoXLhwN9O+tukAlrNpJg1SzDH4QW/URgNYgZTkjA4UkwJUgGXng+6DX1zLfmoymdXo17xh5zmRJ6Q42BWCfc2oJfdAr+Yv+AP9Cb7OJ3H/2JG1HNGz/84klThPVCc=);strokeColor=#ffffff;labelBackgroundColor=none;rounded=0;html=1;whiteSpace=wrap;" parent="HCPk9M70dHxpPQTd53Pf-127" vertex="1">
          <mxGeometry x="134" y="119" width="96" height="18" as="geometry" />
        </mxCell>
        <mxCell id="HCPk9M70dHxpPQTd53Pf-126" value="&lt;font style=&quot;font-size:11px;font-family:SimSun;color:#ffffff;direction:ltr;letter-spacing:0px;line-height:120%;opacity:1&quot;&gt;获取vin、车型表&lt;br&gt;&lt;/font&gt;" style="verticalAlign=middle;align=center;vsdxID=6;fillColor=#5b9bd5;gradientColor=none;shape=stencil(nZBLDoAgDERP0z3SIyjew0SURgSD+Lu9kMZoXLhwN9O+tukAlrNpJg1SzDH4QW/URgNYgZTkjA4UkwJUgGXng+6DX1zLfmoymdXo17xh5zmRJ6Q42BWCfc2oJfdAr+Yv+AP9Cb7OJ3H/2JG1HNGz/84klThPVCc=);strokeColor=#ffffff;labelBackgroundColor=none;rounded=0;html=1;whiteSpace=wrap;" parent="HCPk9M70dHxpPQTd53Pf-127" vertex="1">
          <mxGeometry x="20" y="146" width="100" height="18" as="geometry" />
        </mxCell>
        <mxCell id="HCPk9M70dHxpPQTd53Pf-130" value="&lt;font style=&quot;font-size:11px;font-family:SimSun;color:#ffffff;direction:ltr;letter-spacing:0px;line-height:120%;opacity:1&quot;&gt;仲裁规则文件&lt;br&gt;&lt;/font&gt;" style="verticalAlign=middle;align=center;vsdxID=6;fillColor=#5b9bd5;gradientColor=none;shape=stencil(nZBLDoAgDERP0z3SIyjew0SURgSD+Lu9kMZoXLhwN9O+tukAlrNpJg1SzDH4QW/URgNYgZTkjA4UkwJUgGXng+6DX1zLfmoymdXo17xh5zmRJ6Q42BWCfc2oJfdAr+Yv+AP9Cb7OJ3H/2JG1HNGz/84klThPVCc=);strokeColor=#ffffff;labelBackgroundColor=none;rounded=0;html=1;whiteSpace=wrap;" parent="HCPk9M70dHxpPQTd53Pf-127" vertex="1">
          <mxGeometry x="134" y="146" width="96" height="18" as="geometry" />
        </mxCell>
        <mxCell id="HCPk9M70dHxpPQTd53Pf-129" value="&lt;font style=&quot;font-size:11px;font-family:SimSun;color:#ffffff;direction:ltr;letter-spacing:0px;line-height:120%;opacity:1&quot;&gt;model_info&lt;br&gt;&lt;/font&gt;" style="verticalAlign=middle;align=center;vsdxID=14;fillColor=#5b9bd5;gradientColor=none;shape=stencil(nZBLDoAgDERP0z3SIyjew0SURgSD+Lu9kMZoXLhwN9O+tukAlrNpJg1SzDH4QW/URgNYgZTkjA4UkwJUgGXng+6DX1zLfmoymdXo17xh5zmRJ6Q42BWCfc2oJfdAr+Yv+AP9Cb7OJ3H/2JG1HNGz/84klThPVCc=);strokeColor=#ffffff;labelBackgroundColor=none;rounded=0;html=1;whiteSpace=wrap;" parent="1" vertex="1">
          <mxGeometry x="-335" y="-650" width="85" height="18" as="geometry" />
        </mxCell>
        <mxCell id="HCPk9M70dHxpPQTd53Pf-131" value="&lt;font style=&quot;font-size:11px;font-family:SimSun;color:#ffffff;direction:ltr;letter-spacing:0px;line-height:120%;opacity:1&quot;&gt;仲裁规则&lt;br&gt;&lt;/font&gt;" style="verticalAlign=middle;align=center;vsdxID=20;fillColor=#5b9bd5;gradientColor=none;shape=stencil(nZBLDoAgDERP0z3SIyjew0SURgSD+Lu9kMZoXLhwN9O+tukAlrNpJg1SzDH4QW/URgNYgZTkjA4UkwJUgGXng+6DX1zLfmoymdXo17xh5zmRJ6Q42BWCfc2oJfdAr+Yv+AP9Cb7OJ3H/2JG1HNGz/84klThPVCc=);strokeColor=#ffffff;labelBackgroundColor=none;rounded=0;html=1;whiteSpace=wrap;" parent="1" vertex="1">
          <mxGeometry x="209.5" y="-882" width="91" height="18" as="geometry" />
        </mxCell>
        <mxCell id="HCPk9M70dHxpPQTd53Pf-134" value="&lt;font style=&quot;font-size:11px;font-family:SimSun;color:#ffffff;direction:ltr;letter-spacing:0px;line-height:120%;opacity:1&quot;&gt;数据预处理配置文件&lt;br&gt;&lt;/font&gt;" style="verticalAlign=middle;align=center;vsdxID=20;fillColor=#5b9bd5;gradientColor=none;shape=stencil(nZBLDoAgDERP0z3SIyjew0SURgSD+Lu9kMZoXLhwN9O+tukAlrNpJg1SzDH4QW/URgNYgZTkjA4UkwJUgGXng+6DX1zLfmoymdXo17xh5zmRJ6Q42BWCfc2oJfdAr+Yv+AP9Cb7OJ3H/2JG1HNGz/84klThPVCc=);strokeColor=#ffffff;labelBackgroundColor=none;rounded=0;html=1;whiteSpace=wrap;" parent="1" vertex="1">
          <mxGeometry x="105.75" y="-890" width="91" height="34" as="geometry" />
        </mxCell>
        <mxCell id="HCPk9M70dHxpPQTd53Pf-135" value="&lt;font style=&quot;font-size:11px;font-family:SimSun;color:#ffffff;direction:ltr;letter-spacing:0px;line-height:120%;opacity:1&quot;&gt;个性化参数表&lt;br&gt;&lt;/font&gt;" style="verticalAlign=middle;align=center;vsdxID=20;fillColor=#5b9bd5;gradientColor=none;shape=stencil(nZBLDoAgDERP0z3SIyjew0SURgSD+Lu9kMZoXLhwN9O+tukAlrNpJg1SzDH4QW/URgNYgZTkjA4UkwJUgGXng+6DX1zLfmoymdXo17xh5zmRJ6Q42BWCfc2oJfdAr+Yv+AP9Cb7OJ3H/2JG1HNGz/84klThPVCc=);strokeColor=#ffffff;labelBackgroundColor=none;rounded=0;html=1;whiteSpace=wrap;" parent="1" vertex="1">
          <mxGeometry x="210" y="-962" width="91" height="18" as="geometry" />
        </mxCell>
        <mxCell id="HCPk9M70dHxpPQTd53Pf-138" style="edgeStyle=none;rounded=0;orthogonalLoop=1;jettySize=auto;html=1;fontSize=8;strokeColor=#36393d;fillColor=#ffff88;strokeWidth=4;entryX=0.416;entryY=1.004;entryDx=0;entryDy=0;entryPerimeter=0;exitX=0.309;exitY=-0.014;exitDx=0;exitDy=0;exitPerimeter=0;" parent="1" source="MmdjnHfE7uYEyz5K24KN-55" target="4" edge="1">
          <mxGeometry relative="1" as="geometry">
            <mxPoint x="-370" y="-470" as="targetPoint" />
            <mxPoint x="-402" y="-430" as="sourcePoint" />
          </mxGeometry>
        </mxCell>
        <mxCell id="HCPk9M70dHxpPQTd53Pf-139" value="加载元数据" style="edgeLabel;html=1;align=center;verticalAlign=middle;resizable=0;points=[];fontSize=8;fontColor=#6CA43E;" parent="HCPk9M70dHxpPQTd53Pf-138" vertex="1" connectable="0">
          <mxGeometry x="-0.0818" y="-1" relative="1" as="geometry">
            <mxPoint as="offset" />
          </mxGeometry>
        </mxCell>
        <mxCell id="0DwDOQVk8yopOb6n04je-51" value="" style="verticalLabelPosition=bottom;verticalAlign=top;html=1;shape=mxgraph.basic.tick;fillColor=#60a917;fontColor=#ffffff;strokeColor=#2D7600;" vertex="1" parent="1">
          <mxGeometry x="-90" y="-897" width="35" height="37" as="geometry" />
        </mxCell>
        <mxCell id="0DwDOQVk8yopOb6n04je-52" value="" style="verticalLabelPosition=bottom;verticalAlign=top;html=1;shape=mxgraph.basic.tick;fillColor=#60a917;fontColor=#ffffff;strokeColor=#2D7600;" vertex="1" parent="1">
          <mxGeometry x="75" y="-840" width="35" height="37" as="geometry" />
        </mxCell>
        <mxCell id="0DwDOQVk8yopOb6n04je-54" value="" style="verticalLabelPosition=bottom;verticalAlign=top;html=1;shape=mxgraph.basic.x;fillColor=#e51400;fontColor=#ffffff;strokeColor=#B20000;" vertex="1" parent="1">
          <mxGeometry x="-240" y="-1010" width="30" height="29" as="geometry" />
        </mxCell>
        <mxCell id="0DwDOQVk8yopOb6n04je-57" value="" style="verticalLabelPosition=bottom;verticalAlign=top;html=1;shape=mxgraph.basic.x;fillColor=#e51400;fontColor=#ffffff;strokeColor=#B20000;" vertex="1" parent="1">
          <mxGeometry x="-312" y="-790" width="30" height="29" as="geometry" />
        </mxCell>
        <mxCell id="0DwDOQVk8yopOb6n04je-58" value="" style="verticalLabelPosition=bottom;verticalAlign=top;html=1;shape=mxgraph.basic.x;fillColor=#e51400;fontColor=#ffffff;strokeColor=#B20000;" vertex="1" parent="1">
          <mxGeometry x="-180" y="-641" width="30" height="29" as="geometry" />
        </mxCell>
        <mxCell id="0DwDOQVk8yopOb6n04je-59" value="" style="verticalLabelPosition=bottom;verticalAlign=top;html=1;shape=mxgraph.basic.x;fillColor=#e51400;fontColor=#ffffff;strokeColor=#B20000;" vertex="1" parent="1">
          <mxGeometry x="30" y="-596" width="30" height="29" as="geometry" />
        </mxCell>
        <mxCell id="0DwDOQVk8yopOb6n04je-68" value="" style="verticalLabelPosition=bottom;verticalAlign=top;html=1;shape=mxgraph.basic.x;fillColor=#e51400;fontColor=#ffffff;strokeColor=#B20000;" vertex="1" parent="1">
          <mxGeometry x="-306" y="-486" width="30" height="29" as="geometry" />
        </mxCell>
        <mxCell id="0DwDOQVk8yopOb6n04je-69" value="" style="verticalLabelPosition=bottom;verticalAlign=top;html=1;shape=mxgraph.basic.x;fillColor=#e51400;fontColor=#ffffff;strokeColor=#B20000;" vertex="1" parent="1">
          <mxGeometry x="-445" y="-494" width="30" height="29" as="geometry" />
        </mxCell>
      </root>
    </mxGraphModel>
  </diagram>
  <diagram id="Se9i0mogqGwqh1W-4qKu" name="数据流">
    <mxGraphModel dx="1050" dy="581" grid="1" gridSize="10" guides="1" tooltips="1" connect="1" arrows="1" fold="1" page="1" pageScale="1" pageWidth="827" pageHeight="1169" math="0" shadow="0">
      <root>
        <mxCell id="K1N2eHfGFBSvupe56bbP-0" />
        <mxCell id="K1N2eHfGFBSvupe56bbP-1" parent="K1N2eHfGFBSvupe56bbP-0" />
        <mxCell id="obLhCCcwg48nXzWAqLRq-0" style="edgeStyle=none;rounded=0;orthogonalLoop=1;jettySize=auto;html=1;entryX=0.553;entryY=-0.083;entryDx=0;entryDy=0;entryPerimeter=0;fontSize=8;fontColor=#000000;strokeColor=#5692C9;" parent="K1N2eHfGFBSvupe56bbP-1" source="trx64rmi2RG5KkpJ9nGh-0" target="trx64rmi2RG5KkpJ9nGh-61" edge="1">
          <mxGeometry relative="1" as="geometry" />
        </mxCell>
        <mxCell id="obLhCCcwg48nXzWAqLRq-1" value="拉取个性化参数" style="edgeLabel;html=1;align=center;verticalAlign=middle;resizable=0;points=[];fontSize=8;fontColor=#000000;" parent="obLhCCcwg48nXzWAqLRq-0" vertex="1" connectable="0">
          <mxGeometry x="-0.6155" y="1" relative="1" as="geometry">
            <mxPoint y="49" as="offset" />
          </mxGeometry>
        </mxCell>
        <mxCell id="trx64rmi2RG5KkpJ9nGh-0" value="&lt;p style=&quot;align:left;margin-left:0;margin-right:0;margin-top:0px;margin-bottom:0px;text-indent:0;valign:top;direction:ltr;&quot;&gt;&lt;font style=&quot;font-size:11px;font-family:SimSun;color:#000000;direction:ltr;letter-spacing:0px;line-height:120%;opacity:1&quot;&gt;开放API&lt;br/&gt;&lt;/font&gt;&lt;/p&gt;" style="verticalAlign=top;align=left;vsdxID=140;fillColor=none;gradientColor=none;shape=stencil(nZBLDoAgDERP0z3SIyjew0SURgSD+Lu9kMZoXLhwN9O+tukAlrNpJg1SzDH4QW/URgNYgZTkjA4UkwJUgGXng+6DX1zLfmoymdXo17xh5zmRJ6Q42BWCfc2oJfdAr+Yv+AP9Cb7OJ3H/2JG1HNGz/84klThPVCc=);dashed=1;dashPattern=2.00 2.00;strokeColor=#5b9bd5;labelBackgroundColor=none;rounded=0;html=1;whiteSpace=wrap;" parent="K1N2eHfGFBSvupe56bbP-1" vertex="1">
          <mxGeometry x="836" y="531" width="124" height="99" as="geometry" />
        </mxCell>
        <mxCell id="trx64rmi2RG5KkpJ9nGh-1" value="&lt;font style=&quot;font-size: 11px ; font-family: &amp;#34;simsun&amp;#34; ; color: #000000 ; direction: ltr ; letter-spacing: 0px ; line-height: 120% ; opacity: 1&quot;&gt;大数据平台&lt;br&gt;&lt;/font&gt;" style="verticalAlign=top;align=center;vsdxID=7;fillColor=#ffffff;gradientColor=none;shape=stencil(nZBLDoAgDERP0z3SIyjew0SURgSD+Lu9kMZoXLhwN9O+tukAlrNpJg1SzDH4QW/URgNYgZTkjA4UkwJUgGXng+6DX1zLfmoymdXo17xh5zmRJ6Q42BWCfc2oJfdAr+Yv+AP9Cb7OJ3H/2JG1HNGz/84klThPVCc=);dashed=1;dashPattern=2.00 2.00;strokeColor=#5b9bd5;labelBackgroundColor=none;rounded=0;html=1;whiteSpace=wrap;" parent="K1N2eHfGFBSvupe56bbP-1" vertex="1">
          <mxGeometry x="380" y="398" width="116" height="130" as="geometry" />
        </mxCell>
        <mxCell id="trx64rmi2RG5KkpJ9nGh-2" value="&lt;font style=&quot;font-size:11px;font-family:SimSun;color:#000000;direction:ltr;letter-spacing:0px;line-height:120%;opacity:1&quot;&gt;车况数据&lt;br/&gt;&lt;/font&gt;" style="verticalAlign=middle;align=center;vsdxID=2;fillColor=#4271c6;gradientColor=none;shape=stencil(nZBLDoAgDERP0z3SIyjew0SURgSD+Lu9kMZoXLhwN9O+tukAlrNpJg1SzDH4QW/URgNYgZTkjA4UkwJUgGXng+6DX1zLfmoymdXo17xh5zmRJ6Q42BWCfc2oJfdAr+Yv+AP9Cb7OJ3H/2JG1HNGz/84klThPVCc=);strokeColor=#ffffff;labelBackgroundColor=none;rounded=0;html=1;whiteSpace=wrap;" parent="K1N2eHfGFBSvupe56bbP-1" vertex="1">
          <mxGeometry x="301" y="436.5" width="44" height="32" as="geometry" />
        </mxCell>
        <mxCell id="trx64rmi2RG5KkpJ9nGh-3" value="&lt;font style=&quot;font-size:11px;font-family:SimSun;color:#000000;direction:ltr;letter-spacing:0px;line-height:120%;opacity:1&quot;&gt;app交互埋点数据&lt;br/&gt;&lt;/font&gt;" style="verticalAlign=middle;align=center;vsdxID=3;fillColor=#4271c6;gradientColor=none;shape=stencil(nZBLDoAgDERP0z3SIyjew0SURgSD+Lu9kMZoXLhwN9O+tukAlrNpJg1SzDH4QW/URgNYgZTkjA4UkwJUgGXng+6DX1zLfmoymdXo17xh5zmRJ6Q42BWCfc2oJfdAr+Yv+AP9Cb7OJ3H/2JG1HNGz/84klThPVCc=);strokeColor=#ffffff;labelBackgroundColor=none;rounded=0;html=1;whiteSpace=wrap;" parent="K1N2eHfGFBSvupe56bbP-1" vertex="1">
          <mxGeometry x="290" y="488.5" width="60" height="27" as="geometry" />
        </mxCell>
        <mxCell id="trx64rmi2RG5KkpJ9nGh-7" value="&lt;font style=&quot;font-size: 8px ; font-family: &amp;#34;simsun&amp;#34; ; color: #000000 ; direction: ltr ; letter-spacing: 0px ; line-height: 120% ; opacity: 1&quot;&gt;数据处理&lt;br&gt;&lt;/font&gt;" style="verticalAlign=middle;align=center;vsdxID=21;fillColor=none;gradientColor=none;shape=stencil(nZBLDoAgDERP0z3SIyjew0SURgSD+Lu9kMZoXLhwN9O+tukAlrNpJg1SzDH4QW/URgNYgZTkjA4UkwJUgGXng+6DX1zLfmoymdXo17xh5zmRJ6Q42BWCfc2oJfdAr+Yv+AP9Cb7OJ3H/2JG1HNGz/84klThPVCc=);strokeColor=none;labelBackgroundColor=none;rounded=0;html=1;whiteSpace=wrap;" parent="K1N2eHfGFBSvupe56bbP-1" vertex="1">
          <mxGeometry x="345" y="441" width="49" height="11" as="geometry" />
        </mxCell>
        <mxCell id="trx64rmi2RG5KkpJ9nGh-9" value="&lt;font style=&quot;font-size:11px;font-family:Calibri;color:#000000;direction:ltr;letter-spacing:0px;line-height:120%;opacity:1&quot;&gt;车况宽表&lt;br/&gt;&lt;/font&gt;" style="verticalAlign=middle;align=center;vsdxID=38;fillColor=#feb990;gradientColor=none;shape=stencil(nZBLDoAgDERP0z3SIyjew0SURgSD+Lu9kMZoXLhwN9O+tukAlrNpJg1SzDH4QW/URgNYgZTkjA4UkwJUgGXng+6DX1zLfmoymdXo17xh5zmRJ6Q42BWCfc2oJfdAr+Yv+AP9Cb7OJ3H/2JG1HNGz/84klThPVCc=);strokeColor=#5b9bd5;labelBackgroundColor=none;rounded=0;html=1;whiteSpace=wrap;" parent="K1N2eHfGFBSvupe56bbP-1" vertex="1">
          <mxGeometry x="398" y="443" width="90" height="23" as="geometry" />
        </mxCell>
        <mxCell id="trx64rmi2RG5KkpJ9nGh-10" value="&lt;font style=&quot;font-size:11px;font-family:Calibri;color:#000000;direction:ltr;letter-spacing:0px;line-height:120%;opacity:1&quot;&gt;用户行为宽表&lt;br/&gt;&lt;/font&gt;" style="verticalAlign=middle;align=center;vsdxID=40;fillColor=#feb990;gradientColor=none;shape=stencil(nZBLDoAgDERP0z3SIyjew0SURgSD+Lu9kMZoXLhwN9O+tukAlrNpJg1SzDH4QW/URgNYgZTkjA4UkwJUgGXng+6DX1zLfmoymdXo17xh5zmRJ6Q42BWCfc2oJfdAr+Yv+AP9Cb7OJ3H/2JG1HNGz/84klThPVCc=);strokeColor=#5b9bd5;labelBackgroundColor=none;rounded=0;html=1;whiteSpace=wrap;" parent="K1N2eHfGFBSvupe56bbP-1" vertex="1">
          <mxGeometry x="402" y="494" width="90" height="23" as="geometry" />
        </mxCell>
        <mxCell id="trx64rmi2RG5KkpJ9nGh-12" value="&lt;font style=&quot;font-size: 8px ; font-family: &amp;#34;simsun&amp;#34; ; color: #000000 ; direction: ltr ; letter-spacing: 0px ; line-height: 120% ; opacity: 1&quot;&gt;数据处理&lt;br&gt;&lt;/font&gt;" style="verticalAlign=middle;align=center;vsdxID=64;fillColor=none;gradientColor=none;shape=stencil(nZBLDoAgDERP0z3SIyjew0SURgSD+Lu9kMZoXLhwN9O+tukAlrNpJg1SzDH4QW/URgNYgZTkjA4UkwJUgGXng+6DX1zLfmoymdXo17xh5zmRJ6Q42BWCfc2oJfdAr+Yv+AP9Cb7OJ3H/2JG1HNGz/84klThPVCc=);strokeColor=none;labelBackgroundColor=none;rounded=0;html=1;whiteSpace=wrap;" parent="K1N2eHfGFBSvupe56bbP-1" vertex="1">
          <mxGeometry x="345" y="482" width="49" height="22" as="geometry" />
        </mxCell>
        <mxCell id="trx64rmi2RG5KkpJ9nGh-14" value="&lt;font style=&quot;font-size:11px;font-family:SimSun;color:#000000;direction:ltr;letter-spacing:0px;line-height:120%;opacity:1&quot;&gt;场景大脑业务宽表&lt;br/&gt;&lt;/font&gt;" style="verticalAlign=top;align=center;vsdxID=66;fillColor=#73ae42;gradientColor=none;shape=stencil(nZBLDoAgDERP0z3SIyjew0SURgSD+Lu9kMZoXLhwN9O+tukAlrNpJg1SzDH4QW/URgNYgZTkjA4UkwJUgGXng+6DX1zLfmoymdXo17xh5zmRJ6Q42BWCfc2oJfdAr+Yv+AP9Cb7OJ3H/2JG1HNGz/84klThPVCc=);strokeColor=#ffffff;labelBackgroundColor=none;rounded=0;html=1;whiteSpace=wrap;" parent="K1N2eHfGFBSvupe56bbP-1" vertex="1">
          <mxGeometry x="565" y="441" width="78" height="43" as="geometry" />
        </mxCell>
        <mxCell id="trx64rmi2RG5KkpJ9nGh-15" value="&lt;font style=&quot;font-size:8px;font-family:SimSun;color:#000000;direction:ltr;letter-spacing:0px;line-height:120%;opacity:1&quot;&gt;关联&lt;br/&gt;&lt;/font&gt;" style="verticalAlign=middle;align=center;vsdxID=70;fillColor=none;gradientColor=none;shape=stencil(nZBLDoAgDERP0z3SIyjew0SURgSD+Lu9kMZoXLhwN9O+tukAlrNpJg1SzDH4QW/URgNYgZTkjA4UkwJUgGXng+6DX1zLfmoymdXo17xh5zmRJ6Q42BWCfc2oJfdAr+Yv+AP9Cb7OJ3H/2JG1HNGz/84klThPVCc=);strokeColor=none;labelBackgroundColor=none;rounded=0;html=1;whiteSpace=wrap;" parent="K1N2eHfGFBSvupe56bbP-1" vertex="1">
          <mxGeometry x="510" y="468" width="33" height="16" as="geometry" />
        </mxCell>
        <mxCell id="trx64rmi2RG5KkpJ9nGh-16" value="&lt;font style=&quot;font-size:11px;font-family:SimSun;color:#000000;direction:ltr;letter-spacing:0px;line-height:120%;opacity:1&quot;&gt;打标签数据&lt;br/&gt;&lt;/font&gt;" style="verticalAlign=middle;align=center;vsdxID=72;fillColor=#73ae42;gradientColor=none;shape=stencil(nZBLDoAgDERP0z3SIyjew0SURgSD+Lu9kMZoXLhwN9O+tukAlrNpJg1SzDH4QW/URgNYgZTkjA4UkwJUgGXng+6DX1zLfmoymdXo17xh5zmRJ6Q42BWCfc2oJfdAr+Yv+AP9Cb7OJ3H/2JG1HNGz/84klThPVCc=);strokeColor=#ffffff;labelBackgroundColor=none;rounded=0;html=1;whiteSpace=wrap;" parent="K1N2eHfGFBSvupe56bbP-1" vertex="1">
          <mxGeometry x="566" y="511" width="78" height="22" as="geometry" />
        </mxCell>
        <mxCell id="trx64rmi2RG5KkpJ9nGh-17" value="&lt;font style=&quot;font-size:11px;font-family:SimSun;color:#000000;direction:ltr;letter-spacing:0px;line-height:120%;opacity:1&quot;&gt;训练数据&lt;br/&gt;&lt;/font&gt;" style="verticalAlign=middle;align=center;vsdxID=96;fillColor=#73ae42;gradientColor=none;shape=stencil(nZBLDoAgDERP0z3SIyjew0SURgSD+Lu9kMZoXLhwN9O+tukAlrNpJg1SzDH4QW/URgNYgZTkjA4UkwJUgGXng+6DX1zLfmoymdXo17xh5zmRJ6Q42BWCfc2oJfdAr+Yv+AP9Cb7OJ3H/2JG1HNGz/84klThPVCc=);strokeColor=#ffffff;labelBackgroundColor=none;rounded=0;html=1;whiteSpace=wrap;" parent="K1N2eHfGFBSvupe56bbP-1" vertex="1">
          <mxGeometry x="566" y="557" width="78" height="22" as="geometry" />
        </mxCell>
        <mxCell id="trx64rmi2RG5KkpJ9nGh-18" value="&lt;font style=&quot;font-size:11px;font-family:Calibri;color:#000000;direction:ltr;letter-spacing:0px;line-height:120%;opacity:1&quot;&gt;个性化参数&lt;br/&gt;&lt;/font&gt;" style="verticalAlign=top;align=center;vsdxID=97;fillColor=#73ae42;gradientColor=none;shape=stencil(nZBLDoAgDERP0z3SIyjew0SURgSD+Lu9kMZoXLhwN9O+tukAlrNpJg1SzDH4QW/URgNYgZTkjA4UkwJUgGXng+6DX1zLfmoymdXo17xh5zmRJ6Q42BWCfc2oJfdAr+Yv+AP9Cb7OJ3H/2JG1HNGz/84klThPVCc=);strokeColor=#ffffff;labelBackgroundColor=none;rounded=0;html=1;whiteSpace=wrap;" parent="K1N2eHfGFBSvupe56bbP-1" vertex="1">
          <mxGeometry x="687" y="492" width="78" height="22" as="geometry" />
        </mxCell>
        <mxCell id="trx64rmi2RG5KkpJ9nGh-19" value="&lt;font style=&quot;font-size:11px;font-family:SimSun;color:#000000;direction:ltr;letter-spacing:0px;line-height:120%;opacity:1&quot;&gt;Hive离线数据处理&lt;br/&gt;&lt;/font&gt;" style="verticalAlign=top;align=center;vsdxID=105;fillColor=none;gradientColor=none;shape=stencil(nZBLDoAgDERP0z3SIyjew0SURgSD+Lu9kMZoXLhwN9O+tukAlrNpJg1SzDH4QW/URgNYgZTkjA4UkwJUgGXng+6DX1zLfmoymdXo17xh5zmRJ6Q42BWCfc2oJfdAr+Yv+AP9Cb7OJ3H/2JG1HNGz/84klThPVCc=);dashed=1;dashPattern=2.00 2.00;strokeColor=#5b9bd5;labelBackgroundColor=none;rounded=0;html=1;whiteSpace=wrap;" parent="K1N2eHfGFBSvupe56bbP-1" vertex="1">
          <mxGeometry x="526" y="391" width="258" height="200" as="geometry" />
        </mxCell>
        <mxCell id="trx64rmi2RG5KkpJ9nGh-20" value="&lt;font style=&quot;font-size:11px;font-family:SimSun;color:#000000;direction:ltr;letter-spacing:0px;line-height:120%;opacity:1&quot;&gt;反馈数据&lt;/font&gt;&lt;font style=&quot;font-size:11px;font-family:Calibri;color:#000000;direction:ltr;letter-spacing:0px;line-height:120%;opacity:1&quot;&gt;&lt;br/&gt;&lt;/font&gt;" style="verticalAlign=middle;align=center;vsdxID=106;fillColor=#73ae42;gradientColor=none;shape=stencil(nZBLDoAgDERP0z3SIyjew0SURgSD+Lu9kMZoXLhwN9O+tukAlrNpJg1SzDH4QW/URgNYgZTkjA4UkwJUgGXng+6DX1zLfmoymdXo17xh5zmRJ6Q42BWCfc2oJfdAr+Yv+AP9Cb7OJ3H/2JG1HNGz/84klThPVCc=);strokeColor=#ffffff;labelBackgroundColor=none;rounded=0;html=1;whiteSpace=wrap;" parent="K1N2eHfGFBSvupe56bbP-1" vertex="1">
          <mxGeometry x="688" y="531" width="78" height="22" as="geometry" />
        </mxCell>
        <mxCell id="trx64rmi2RG5KkpJ9nGh-21" value="&lt;font style=&quot;font-size:11px;font-family:SimSun;color:#000000;direction:ltr;letter-spacing:0px;line-height:120%;opacity:1&quot;&gt;模型指标&lt;br/&gt;&lt;/font&gt;" style="verticalAlign=middle;align=center;vsdxID=110;fillColor=#73ae42;gradientColor=none;shape=stencil(nZBLDoAgDERP0z3SIyjew0SURgSD+Lu9kMZoXLhwN9O+tukAlrNpJg1SzDH4QW/URgNYgZTkjA4UkwJUgGXng+6DX1zLfmoymdXo17xh5zmRJ6Q42BWCfc2oJfdAr+Yv+AP9Cb7OJ3H/2JG1HNGz/84klThPVCc=);strokeColor=#ffffff;labelBackgroundColor=none;rounded=0;html=1;whiteSpace=wrap;" parent="K1N2eHfGFBSvupe56bbP-1" vertex="1">
          <mxGeometry x="647" y="656" width="78" height="22" as="geometry" />
        </mxCell>
        <mxCell id="trx64rmi2RG5KkpJ9nGh-22" value="&lt;font style=&quot;font-size:11px;font-family:SimSun;color:#000000;direction:ltr;letter-spacing:0px;line-height:120%;opacity:1&quot;&gt;模型管理&lt;/font&gt;&lt;font style=&quot;font-size:11px;font-family:Themed;color:#000000;direction:ltr;letter-spacing:0px;line-height:120%;opacity:1&quot;&gt;&lt;br/&gt;&lt;/font&gt;" style="verticalAlign=middle;align=center;vsdxID=112;fillColor=#73ae42;gradientColor=none;shape=stencil(nZBLDoAgDERP0z3SIyjew0SURgSD+Lu9kMZoXLhwN9O+tukAlrNpJg1SzDH4QW/URgNYgZTkjA4UkwJUgGXng+6DX1zLfmoymdXo17xh5zmRJ6Q42BWCfc2oJfdAr+Yv+AP9Cb7OJ3H/2JG1HNGz/84klThPVCc=);strokeColor=#ffffff;labelBackgroundColor=none;rounded=0;html=1;whiteSpace=wrap;" parent="K1N2eHfGFBSvupe56bbP-1" vertex="1">
          <mxGeometry x="646" y="700" width="78" height="22" as="geometry" />
        </mxCell>
        <mxCell id="trx64rmi2RG5KkpJ9nGh-23" value="&lt;font style=&quot;font-size:11px;font-family:SimSun;color:#000000;direction:ltr;letter-spacing:0px;line-height:120%;opacity:1&quot;&gt;模型训练&lt;/font&gt;&lt;font style=&quot;font-size:11px;font-family:Themed;color:#000000;direction:ltr;letter-spacing:0px;line-height:120%;opacity:1&quot;&gt;&lt;br/&gt;&lt;/font&gt;" style="verticalAlign=middle;align=center;vsdxID=113;fillColor=#73ae42;gradientColor=none;shape=stencil(nZBLDoAgDERP0z3SIyjew0SURgSD+Lu9kMZoXLhwN9O+tukAlrNpJg1SzDH4QW/URgNYgZTkjA4UkwJUgGXng+6DX1zLfmoymdXo17xh5zmRJ6Q42BWCfc2oJfdAr+Yv+AP9Cb7OJ3H/2JG1HNGz/84klThPVCc=);strokeColor=#ffffff;labelBackgroundColor=none;rounded=0;html=1;whiteSpace=wrap;" parent="K1N2eHfGFBSvupe56bbP-1" vertex="1">
          <mxGeometry x="522" y="656" width="90" height="22" as="geometry" />
        </mxCell>
        <mxCell id="trx64rmi2RG5KkpJ9nGh-24" value="&lt;font style=&quot;font-size:11px;font-family:SimSun;color:#000000;direction:ltr;letter-spacing:0px;line-height:120%;opacity:1&quot;&gt;模型文件&lt;br/&gt;&lt;/font&gt;" style="verticalAlign=middle;align=center;vsdxID=114;fillColor=#73ae42;gradientColor=none;shape=stencil(nZBLDoAgDERP0z3SIyjew0SURgSD+Lu9kMZoXLhwN9O+tukAlrNpJg1SzDH4QW/URgNYgZTkjA4UkwJUgGXng+6DX1zLfmoymdXo17xh5zmRJ6Q42BWCfc2oJfdAr+Yv+AP9Cb7OJ3H/2JG1HNGz/84klThPVCc=);strokeColor=#ffffff;labelBackgroundColor=none;rounded=0;html=1;whiteSpace=wrap;" parent="K1N2eHfGFBSvupe56bbP-1" vertex="1">
          <mxGeometry x="520" y="700" width="90" height="22" as="geometry" />
        </mxCell>
        <mxCell id="trx64rmi2RG5KkpJ9nGh-25" value="&lt;font style=&quot;font-size:11px;font-family:SimSun;color:#000000;direction:ltr;letter-spacing:0px;line-height:120%;opacity:1&quot;&gt;场景大脑模型训练（AI算法平台）&lt;br/&gt;&lt;/font&gt;" style="verticalAlign=top;align=center;vsdxID=118;fillColor=none;gradientColor=none;shape=stencil(nZBLDoAgDERP0z3SIyjew0SURgSD+Lu9kMZoXLhwN9O+tukAlrNpJg1SzDH4QW/URgNYgZTkjA4UkwJUgGXng+6DX1zLfmoymdXo17xh5zmRJ6Q42BWCfc2oJfdAr+Yv+AP9Cb7OJ3H/2JG1HNGz/84klThPVCc=);dashed=1;dashPattern=2.00 2.00;strokeColor=#5b9bd5;labelBackgroundColor=none;rounded=0;html=1;whiteSpace=wrap;" parent="K1N2eHfGFBSvupe56bbP-1" vertex="1">
          <mxGeometry x="505" y="628" width="229" height="101" as="geometry" />
        </mxCell>
        <mxCell id="trx64rmi2RG5KkpJ9nGh-26" style="edgeStyle=none;rounded=0;orthogonalLoop=1;jettySize=auto;html=1;fillColor=#1ba1e2;strokeColor=#5692C9;entryX=0.409;entryY=-0.035;entryDx=0;entryDy=0;entryPerimeter=0;" parent="K1N2eHfGFBSvupe56bbP-1" source="trx64rmi2RG5KkpJ9nGh-28" target="trx64rmi2RG5KkpJ9nGh-61" edge="1">
          <mxGeometry relative="1" as="geometry">
            <mxPoint x="869.9999999999998" y="890" as="targetPoint" />
          </mxGeometry>
        </mxCell>
        <mxCell id="trx64rmi2RG5KkpJ9nGh-27" value="&lt;font style=&quot;font-size: 8px;&quot;&gt;模型推送&lt;br style=&quot;font-size: 8px;&quot;&gt;版本校验&lt;/font&gt;" style="edgeLabel;html=1;align=center;verticalAlign=middle;resizable=0;points=[];fontSize=8;" parent="trx64rmi2RG5KkpJ9nGh-26" vertex="1" connectable="0">
          <mxGeometry x="-0.604" y="1" relative="1" as="geometry">
            <mxPoint x="7" y="19" as="offset" />
          </mxGeometry>
        </mxCell>
        <mxCell id="trx64rmi2RG5KkpJ9nGh-28" value="&lt;font style=&quot;font-size:11px;font-family:SimSun;color:#000000;direction:ltr;letter-spacing:0px;line-height:120%;opacity:1&quot;&gt;云端管理应用&lt;br/&gt;&lt;/font&gt;" style="verticalAlign=middle;align=center;vsdxID=125;fillColor=#73ae42;gradientColor=none;shape=stencil(nZBLDoAgDERP0z3SIyjew0SURgSD+Lu9kMZoXLhwN9O+tukAlrNpJg1SzDH4QW/URgNYgZTkjA4UkwJUgGXng+6DX1zLfmoymdXo17xh5zmRJ6Q42BWCfc2oJfdAr+Yv+AP9Cb7OJ3H/2JG1HNGz/84klThPVCc=);strokeColor=#000000;labelBackgroundColor=none;rounded=0;html=1;whiteSpace=wrap;" parent="K1N2eHfGFBSvupe56bbP-1" vertex="1">
          <mxGeometry x="763" y="636" width="67" height="43" as="geometry" />
        </mxCell>
        <mxCell id="trx64rmi2RG5KkpJ9nGh-29" value="&lt;font style=&quot;font-size:11px;font-family:SimSun;color:#000000;direction:ltr;letter-spacing:0px;line-height:120%;opacity:1&quot;&gt;Doris数据库&lt;br/&gt;&lt;/font&gt;" style="verticalAlign=middle;align=center;vsdxID=126;fillColor=#73ae42;gradientColor=none;shape=stencil(nZBLDoAgDERP0z3SIyjew0SURgSD+Lu9kMZoXLhwN9O+tukAlrNpJg1SzDH4QW/URgNYgZTkjA4UkwJUgGXng+6DX1zLfmoymdXo17xh5zmRJ6Q42BWCfc2oJfdAr+Yv+AP9Cb7OJ3H/2JG1HNGz/84klThPVCc=);strokeColor=#ffffff;labelBackgroundColor=none;rounded=0;html=1;whiteSpace=wrap;" parent="K1N2eHfGFBSvupe56bbP-1" vertex="1">
          <mxGeometry x="845" y="555" width="104" height="23" as="geometry" />
        </mxCell>
        <mxCell id="trx64rmi2RG5KkpJ9nGh-30" value="&lt;font style=&quot;font-size:11px;font-family:SimSun;color:#000000;direction:ltr;letter-spacing:0px;line-height:120%;opacity:1&quot;&gt;DATA-API接口&lt;br/&gt;&lt;/font&gt;" style="verticalAlign=middle;align=center;vsdxID=129;fillColor=#73ae42;gradientColor=none;shape=stencil(nZBLDoAgDERP0z3SIyjew0SURgSD+Lu9kMZoXLhwN9O+tukAlrNpJg1SzDH4QW/URgNYgZTkjA4UkwJUgGXng+6DX1zLfmoymdXo17xh5zmRJ6Q42BWCfc2oJfdAr+Yv+AP9Cb7OJ3H/2JG1HNGz/84klThPVCc=);strokeColor=#ffffff;labelBackgroundColor=none;rounded=0;html=1;whiteSpace=wrap;" parent="K1N2eHfGFBSvupe56bbP-1" vertex="1">
          <mxGeometry x="845" y="603" width="104" height="23" as="geometry" />
        </mxCell>
        <mxCell id="trx64rmi2RG5KkpJ9nGh-31" style="edgeStyle=none;rounded=0;orthogonalLoop=1;jettySize=auto;html=1;strokeColor=#5692C9;entryX=0.08;entryY=-0.067;entryDx=0;entryDy=0;entryPerimeter=0;" parent="K1N2eHfGFBSvupe56bbP-1" source="trx64rmi2RG5KkpJ9nGh-33" target="trx64rmi2RG5KkpJ9nGh-61" edge="1">
          <mxGeometry relative="1" as="geometry">
            <mxPoint x="869.9999999999998" y="890" as="targetPoint" />
          </mxGeometry>
        </mxCell>
        <mxCell id="trx64rmi2RG5KkpJ9nGh-32" value="拉取模型文件" style="edgeLabel;html=1;align=center;verticalAlign=middle;resizable=0;points=[];fontSize=8;" parent="trx64rmi2RG5KkpJ9nGh-31" vertex="1" connectable="0">
          <mxGeometry x="-0.6422" relative="1" as="geometry">
            <mxPoint x="14" y="-5" as="offset" />
          </mxGeometry>
        </mxCell>
        <mxCell id="trx64rmi2RG5KkpJ9nGh-33" value="&lt;font style=&quot;font-size:11px;font-family:SimSun;color:#000000;direction:ltr;letter-spacing:0px;line-height:120%;opacity:1&quot;&gt;文件云&lt;br/&gt;&lt;/font&gt;" style="verticalAlign=top;align=center;vsdxID=148;fillColor=#FFCE9F;gradientColor=none;shape=stencil(nZBLDoAgDERP0z3SIyjew0SURgSD+Lu9kMZoXLhwN9O+tukAlrNpJg1SzDH4QW/URgNYgZTkjA4UkwJUgGXng+6DX1zLfmoymdXo17xh5zmRJ6Q42BWCfc2oJfdAr+Yv+AP9Cb7OJ3H/2JG1HNGz/84klThPVCc=);strokeColor=#000000;labelBackgroundColor=none;rounded=0;html=1;whiteSpace=wrap;" parent="K1N2eHfGFBSvupe56bbP-1" vertex="1">
          <mxGeometry x="658" y="750" width="67" height="50" as="geometry" />
        </mxCell>
        <mxCell id="trx64rmi2RG5KkpJ9nGh-34" value="&lt;font style=&quot;font-size:11px;font-family:SimSun;color:#000000;direction:ltr;letter-spacing:0px;line-height:120%;opacity:1&quot;&gt;场景大脑算法数据处理&lt;br/&gt;&lt;/font&gt;" style="verticalAlign=top;align=center;vsdxID=152;fillColor=none;gradientColor=none;shape=stencil(nZBLDoAgDERP0z3SIyjew0SURgSD+Lu9kMZoXLhwN9O+tukAlrNpJg1SzDH4QW/URgNYgZTkjA4UkwJUgGXng+6DX1zLfmoymdXo17xh5zmRJ6Q42BWCfc2oJfdAr+Yv+AP9Cb7OJ3H/2JG1HNGz/84klThPVCc=);strokeColor=#000000;labelBackgroundColor=none;rounded=0;html=1;whiteSpace=wrap;" parent="K1N2eHfGFBSvupe56bbP-1" vertex="1">
          <mxGeometry x="555" y="414" width="220" height="166" as="geometry" />
        </mxCell>
        <mxCell id="trx64rmi2RG5KkpJ9nGh-35" value="&lt;font style=&quot;font-size:8px;font-family:SimSun;color:#000000;direction:ltr;letter-spacing:0px;line-height:120%;opacity:1&quot;&gt;提取&lt;br/&gt;&lt;/font&gt;" style="verticalAlign=middle;align=center;vsdxID=156;fillColor=none;gradientColor=none;shape=stencil(nZBLDoAgDERP0z3SIyjew0SURgSD+Lu9kMZoXLhwN9O+tukAlrNpJg1SzDH4QW/URgNYgZTkjA4UkwJUgGXng+6DX1zLfmoymdXo17xh5zmRJ6Q42BWCfc2oJfdAr+Yv+AP9Cb7OJ3H/2JG1HNGz/84klThPVCc=);strokeColor=none;labelBackgroundColor=none;rounded=0;html=1;whiteSpace=wrap;" parent="K1N2eHfGFBSvupe56bbP-1" vertex="1">
          <mxGeometry x="510" y="443" width="33" height="16" as="geometry" />
        </mxCell>
        <mxCell id="trx64rmi2RG5KkpJ9nGh-39" style="vsdxID=155;edgeStyle=none;startArrow=none;endArrow=block;startSize=5;endSize=5;strokeColor=#5692c9;spacingTop=0;spacingBottom=0;spacingLeft=0;spacingRight=0;verticalAlign=middle;html=1;labelBackgroundColor=#ffffff;rounded=0;entryX=0;entryY=0.5348837209302325;entryDx=0;entryDy=0;entryPerimeter=0;" parent="K1N2eHfGFBSvupe56bbP-1" target="trx64rmi2RG5KkpJ9nGh-14" edge="1">
          <mxGeometry relative="1" as="geometry">
            <mxPoint x="-1" as="offset" />
            <Array as="points" />
            <mxPoint x="500" y="464" as="sourcePoint" />
          </mxGeometry>
        </mxCell>
        <mxCell id="trx64rmi2RG5KkpJ9nGh-40" value="&lt;font style=&quot;font-size:8px;font-family:SimSun;color:#000000;direction:ltr;letter-spacing:0px;line-height:120%;opacity:1&quot;&gt;埋点上传&lt;br/&gt;&lt;/font&gt;" style="vsdxID=154;edgeStyle=none;startArrow=none;endArrow=block;startSize=5;endSize=5;strokeColor=#5692c9;spacingTop=0;spacingBottom=0;spacingLeft=0;spacingRight=0;verticalAlign=middle;html=1;labelBackgroundColor=#ffffff;rounded=0;align=center;entryX=0.7166666666666667;entryY=1.037037037037037;entryDx=0;entryDy=0;entryPerimeter=0;jumpStyle=arc;exitX=0.005;exitY=0.306;exitDx=0;exitDy=0;exitPerimeter=0;" parent="K1N2eHfGFBSvupe56bbP-1" source="trx64rmi2RG5KkpJ9nGh-61" target="trx64rmi2RG5KkpJ9nGh-3" edge="1">
          <mxGeometry relative="1" as="geometry">
            <mxPoint as="offset" />
            <Array as="points">
              <mxPoint x="550" y="790" />
            </Array>
            <mxPoint x="879" y="930" as="sourcePoint" />
          </mxGeometry>
        </mxCell>
        <mxCell id="trx64rmi2RG5KkpJ9nGh-41" value="&lt;font style=&quot;font-size:8px;font-family:SimSun;color:#000000;direction:ltr;letter-spacing:0px;line-height:120%;opacity:1&quot;&gt;接入&lt;br/&gt;&lt;/font&gt;" style="vsdxID=151;edgeStyle=none;startArrow=none;endArrow=block;startSize=5;endSize=5;strokeColor=#5692c9;spacingTop=0;spacingBottom=0;spacingLeft=0;spacingRight=0;verticalAlign=middle;html=1;labelBackgroundColor=#ffffff;rounded=0;align=center;exitX=0.7051282051282052;exitY=1;exitDx=0;exitDy=0;exitPerimeter=0;entryX=0;entryY=0.20930232558139536;entryDx=0;entryDy=0;entryPerimeter=0;" parent="K1N2eHfGFBSvupe56bbP-1" source="trx64rmi2RG5KkpJ9nGh-20" target="trx64rmi2RG5KkpJ9nGh-28" edge="1">
          <mxGeometry relative="1" as="geometry">
            <mxPoint as="offset" />
            <Array as="points">
              <mxPoint x="743" y="644.64" />
            </Array>
          </mxGeometry>
        </mxCell>
        <mxCell id="trx64rmi2RG5KkpJ9nGh-42" value="&lt;font style=&quot;font-size:8px;font-family:SimSun;color:#000000;direction:ltr;letter-spacing:0px;line-height:120%;opacity:1&quot;&gt;存储模型文件&lt;br/&gt;&lt;/font&gt;" style="vsdxID=149;edgeStyle=none;startArrow=none;endArrow=block;startSize=5;endSize=5;strokeColor=#5692c9;spacingTop=0;spacingBottom=0;spacingLeft=0;spacingRight=0;verticalAlign=middle;html=1;labelBackgroundColor=#ffffff;rounded=0;align=center;exitX=0.48717948717948717;exitY=1.0454545454545454;exitDx=0;exitDy=0;exitPerimeter=0;entryX=0.399;entryY=0.017;entryDx=0;entryDy=0;entryPerimeter=0;" parent="K1N2eHfGFBSvupe56bbP-1" source="trx64rmi2RG5KkpJ9nGh-22" target="trx64rmi2RG5KkpJ9nGh-33" edge="1">
          <mxGeometry relative="1" as="geometry">
            <mxPoint x="19" as="offset" />
            <Array as="points">
              <mxPoint x="684" y="750" />
            </Array>
          </mxGeometry>
        </mxCell>
        <mxCell id="trx64rmi2RG5KkpJ9nGh-43" value="&lt;font style=&quot;font-size:8px;font-family:SimSun;color:#000000;direction:ltr;letter-spacing:0px;line-height:120%;opacity:1&quot;&gt;通知&lt;br/&gt;&lt;/font&gt;" style="vsdxID=146;edgeStyle=none;startArrow=none;endArrow=block;startSize=5;endSize=5;strokeColor=#5692c9;spacingTop=0;spacingBottom=0;spacingLeft=0;spacingRight=0;verticalAlign=middle;html=1;labelBackgroundColor=#ffffff;rounded=0;align=center;exitX=1;exitY=0.7727272727272727;exitDx=0;exitDy=0;exitPerimeter=0;entryX=0.44776119402985076;entryY=0;entryDx=0;entryDy=0;entryPerimeter=0;" parent="K1N2eHfGFBSvupe56bbP-1" source="trx64rmi2RG5KkpJ9nGh-18" target="trx64rmi2RG5KkpJ9nGh-28" edge="1">
          <mxGeometry relative="1" as="geometry">
            <mxPoint y="-1" as="offset" />
            <Array as="points">
              <mxPoint x="793.1" y="509" />
            </Array>
          </mxGeometry>
        </mxCell>
        <mxCell id="trx64rmi2RG5KkpJ9nGh-44" value="" style="vsdxID=138;edgeStyle=none;startArrow=none;endArrow=block;startSize=5;endSize=5;strokeColor=#5692c9;spacingTop=0;spacingBottom=0;spacingLeft=0;spacingRight=0;verticalAlign=middle;html=1;labelBackgroundColor=#ffffff;rounded=0;align=center;exitX=0.5;exitY=0;exitDx=0;exitDy=0;exitPerimeter=0;entryX=0.5;entryY=1;entryDx=0;entryDy=0;entryPerimeter=0;" parent="K1N2eHfGFBSvupe56bbP-1" source="trx64rmi2RG5KkpJ9nGh-30" target="trx64rmi2RG5KkpJ9nGh-29" edge="1">
          <mxGeometry relative="1" as="geometry">
            <mxPoint x="10" y="-1" as="offset" />
            <Array as="points" />
          </mxGeometry>
        </mxCell>
        <mxCell id="trx64rmi2RG5KkpJ9nGh-45" style="vsdxID=134;edgeStyle=none;startArrow=none;endArrow=block;startSize=5;endSize=5;strokeColor=#5692c9;spacingTop=0;spacingBottom=0;spacingLeft=0;spacingRight=0;verticalAlign=middle;html=1;labelBackgroundColor=#ffffff;rounded=0;exitX=0.5;exitY=1;exitDx=0;exitDy=0;exitPerimeter=0;entryX=0.5;entryY=0;entryDx=0;entryDy=0;entryPerimeter=0;" parent="K1N2eHfGFBSvupe56bbP-1" source="trx64rmi2RG5KkpJ9nGh-29" target="trx64rmi2RG5KkpJ9nGh-30" edge="1">
          <mxGeometry relative="1" as="geometry">
            <mxPoint x="10" as="offset" />
            <Array as="points" />
          </mxGeometry>
        </mxCell>
        <mxCell id="trx64rmi2RG5KkpJ9nGh-46" value="" style="vsdxID=133;edgeStyle=none;startArrow=none;endArrow=block;startSize=5;endSize=5;strokeColor=#5692c9;spacingTop=0;spacingBottom=0;spacingLeft=0;spacingRight=0;verticalAlign=middle;html=1;labelBackgroundColor=#ffffff;rounded=0;align=center;exitX=1;exitY=0.5;exitDx=0;exitDy=0;exitPerimeter=0;entryX=0.49038461538461536;entryY=0;entryDx=0;entryDy=0;entryPerimeter=0;" parent="K1N2eHfGFBSvupe56bbP-1" source="trx64rmi2RG5KkpJ9nGh-18" target="trx64rmi2RG5KkpJ9nGh-29" edge="1">
          <mxGeometry relative="1" as="geometry">
            <mxPoint as="offset" />
            <Array as="points">
              <mxPoint x="896.04" y="503" />
            </Array>
          </mxGeometry>
        </mxCell>
        <mxCell id="trx64rmi2RG5KkpJ9nGh-47" value="&lt;font style=&quot;font-size:8px;font-family:SimSun;color:#000000;direction:ltr;letter-spacing:0px;line-height:120%;opacity:1&quot;&gt;通知&lt;br/&gt;&lt;/font&gt;" style="vsdxID=128;edgeStyle=none;startArrow=none;endArrow=block;startSize=5;endSize=5;strokeColor=#5692c9;spacingTop=0;spacingBottom=0;spacingLeft=0;spacingRight=0;verticalAlign=middle;html=1;labelBackgroundColor=#ffffff;rounded=0;align=center;exitX=1.0128205128205128;exitY=0.5909090909090909;exitDx=0;exitDy=0;exitPerimeter=0;entryX=0.47761194029850745;entryY=1;entryDx=0;entryDy=0;entryPerimeter=0;" parent="K1N2eHfGFBSvupe56bbP-1" source="trx64rmi2RG5KkpJ9nGh-22" target="trx64rmi2RG5KkpJ9nGh-28" edge="1">
          <mxGeometry relative="1" as="geometry">
            <mxPoint x="-1" as="offset" />
            <Array as="points">
              <mxPoint x="794.8" y="713" />
            </Array>
          </mxGeometry>
        </mxCell>
        <mxCell id="trx64rmi2RG5KkpJ9nGh-48" style="vsdxID=124;edgeStyle=none;startArrow=none;endArrow=block;startSize=5;endSize=5;strokeColor=#5692c9;spacingTop=0;spacingBottom=0;spacingLeft=0;spacingRight=0;verticalAlign=middle;html=1;labelBackgroundColor=#ffffff;rounded=0;exitX=1;exitY=0.3181818181818182;exitDx=0;exitDy=0;exitPerimeter=0;entryX=0;entryY=0.3181818181818182;entryDx=0;entryDy=0;entryPerimeter=0;" parent="K1N2eHfGFBSvupe56bbP-1" source="trx64rmi2RG5KkpJ9nGh-24" target="trx64rmi2RG5KkpJ9nGh-22" edge="1">
          <mxGeometry relative="1" as="geometry">
            <mxPoint x="-1" as="offset" />
            <Array as="points" />
          </mxGeometry>
        </mxCell>
        <mxCell id="trx64rmi2RG5KkpJ9nGh-49" value="&lt;font style=&quot;font-size:8px;font-family:SimSun;color:#000000;direction:ltr;letter-spacing:0px;line-height:120%;opacity:1&quot;&gt;转换&lt;/font&gt;&lt;font style=&quot;font-size:8px;font-family:Themed;color:#000000;direction:ltr;letter-spacing:0px;line-height:120%;opacity:1&quot;&gt;&lt;br/&gt;&lt;/font&gt;" style="vsdxID=123;edgeStyle=none;startArrow=none;endArrow=block;startSize=5;endSize=5;strokeColor=#5692c9;spacingTop=0;spacingBottom=0;spacingLeft=0;spacingRight=0;verticalAlign=middle;html=1;labelBackgroundColor=#ffffff;rounded=0;align=center;exitX=0.4888888888888889;exitY=1.0454545454545454;exitDx=0;exitDy=0;exitPerimeter=0;entryX=0.5111111111111111;entryY=0;entryDx=0;entryDy=0;entryPerimeter=0;" parent="K1N2eHfGFBSvupe56bbP-1" source="trx64rmi2RG5KkpJ9nGh-23" target="trx64rmi2RG5KkpJ9nGh-24" edge="1">
          <mxGeometry relative="1" as="geometry">
            <mxPoint x="10" y="-1" as="offset" />
            <Array as="points" />
          </mxGeometry>
        </mxCell>
        <mxCell id="trx64rmi2RG5KkpJ9nGh-50" value="&lt;font style=&quot;font-size:8px;font-family:SimSun;color:#000000;direction:ltr;letter-spacing:0px;line-height:120%;opacity:1&quot;&gt;评估&lt;br/&gt;&lt;/font&gt;" style="vsdxID=122;edgeStyle=none;startArrow=none;endArrow=block;startSize=5;endSize=5;strokeColor=#5692c9;spacingTop=0;spacingBottom=0;spacingLeft=0;spacingRight=0;verticalAlign=middle;html=1;labelBackgroundColor=#ffffff;rounded=0;align=center;exitX=1;exitY=0.5;exitDx=0;exitDy=0;exitPerimeter=0;entryX=0;entryY=0.5;entryDx=0;entryDy=0;entryPerimeter=0;" parent="K1N2eHfGFBSvupe56bbP-1" source="trx64rmi2RG5KkpJ9nGh-23" target="trx64rmi2RG5KkpJ9nGh-21" edge="1">
          <mxGeometry relative="1" as="geometry">
            <mxPoint x="-1" as="offset" />
            <Array as="points" />
          </mxGeometry>
        </mxCell>
        <mxCell id="trx64rmi2RG5KkpJ9nGh-51" style="vsdxID=119;edgeStyle=none;startArrow=none;endArrow=block;startSize=5;endSize=5;strokeColor=#5692c9;spacingTop=0;spacingBottom=0;spacingLeft=0;spacingRight=0;verticalAlign=middle;html=1;labelBackgroundColor=#ffffff;rounded=0;exitX=0.5;exitY=1.0454545454545454;exitDx=0;exitDy=0;exitPerimeter=0;entryX=0.5222222222222223;entryY=0;entryDx=0;entryDy=0;entryPerimeter=0;" parent="K1N2eHfGFBSvupe56bbP-1" source="trx64rmi2RG5KkpJ9nGh-17" target="trx64rmi2RG5KkpJ9nGh-23" edge="1">
          <mxGeometry relative="1" as="geometry">
            <mxPoint x="-1" as="offset" />
            <Array as="points">
              <mxPoint x="605" y="618.2" />
              <mxPoint x="569.25" y="618.2" />
            </Array>
          </mxGeometry>
        </mxCell>
        <mxCell id="trx64rmi2RG5KkpJ9nGh-52" value="&lt;font style=&quot;font-size:8px;font-family:SimSun;color:#000000;direction:ltr;letter-spacing:0px;line-height:120%;opacity:1&quot;&gt;统计&lt;br/&gt;&lt;/font&gt;" style="vsdxID=108;edgeStyle=none;startArrow=none;endArrow=block;startSize=5;endSize=5;strokeColor=#5692c9;spacingTop=0;spacingBottom=0;spacingLeft=0;spacingRight=0;verticalAlign=middle;html=1;labelBackgroundColor=#ffffff;rounded=0;align=center;exitX=1;exitY=0.5;exitDx=0;exitDy=0;exitPerimeter=0;entryX=0;entryY=0.5;entryDx=0;entryDy=0;entryPerimeter=0;" parent="K1N2eHfGFBSvupe56bbP-1" source="trx64rmi2RG5KkpJ9nGh-16" target="trx64rmi2RG5KkpJ9nGh-20" edge="1">
          <mxGeometry relative="1" as="geometry">
            <mxPoint y="-1" as="offset" />
            <Array as="points">
              <mxPoint x="659" y="522" />
              <mxPoint x="659" y="541.8" />
            </Array>
          </mxGeometry>
        </mxCell>
        <mxCell id="trx64rmi2RG5KkpJ9nGh-53" value="&lt;font style=&quot;font-size:8px;font-family:SimSun;color:#000000;direction:ltr;letter-spacing:0px;line-height:120%;opacity:1&quot;&gt;提取&lt;br/&gt;&lt;/font&gt;" style="vsdxID=103;edgeStyle=none;startArrow=none;endArrow=block;startSize=5;endSize=5;strokeColor=#5692c9;spacingTop=0;spacingBottom=0;spacingLeft=0;spacingRight=0;verticalAlign=middle;html=1;labelBackgroundColor=#ffffff;rounded=0;align=center;exitX=1;exitY=0.5;exitDx=0;exitDy=0;exitPerimeter=0;entryX=0;entryY=0.5;entryDx=0;entryDy=0;entryPerimeter=0;" parent="K1N2eHfGFBSvupe56bbP-1" source="trx64rmi2RG5KkpJ9nGh-16" target="trx64rmi2RG5KkpJ9nGh-18" edge="1">
          <mxGeometry relative="1" as="geometry">
            <mxPoint as="offset" />
            <Array as="points">
              <mxPoint x="663.5" y="522" />
              <mxPoint x="663.5" y="502.8" />
            </Array>
          </mxGeometry>
        </mxCell>
        <mxCell id="trx64rmi2RG5KkpJ9nGh-54" value="&lt;font style=&quot;font-size:8px;font-family:SimSun;color:#000000;direction:ltr;letter-spacing:0px;line-height:120%;opacity:1&quot;&gt;预处理&lt;br/&gt;&lt;/font&gt;" style="vsdxID=102;edgeStyle=none;startArrow=none;endArrow=block;startSize=5;endSize=5;strokeColor=#5692c9;spacingTop=0;spacingBottom=0;spacingLeft=0;spacingRight=0;verticalAlign=middle;html=1;labelBackgroundColor=#ffffff;rounded=0;align=center;exitX=0.5;exitY=1.0454545454545454;exitDx=0;exitDy=0;exitPerimeter=0;entryX=0.5;entryY=0;entryDx=0;entryDy=0;entryPerimeter=0;" parent="K1N2eHfGFBSvupe56bbP-1" source="trx64rmi2RG5KkpJ9nGh-16" target="trx64rmi2RG5KkpJ9nGh-17" edge="1">
          <mxGeometry relative="1" as="geometry">
            <mxPoint x="10" y="-1" as="offset" />
            <Array as="points" />
          </mxGeometry>
        </mxCell>
        <mxCell id="trx64rmi2RG5KkpJ9nGh-55" value="&lt;font style=&quot;font-size:8px;font-family:SimSun;color:#000000;direction:ltr;letter-spacing:0px;line-height:120%;opacity:1&quot;&gt;打标签&lt;br/&gt;&lt;/font&gt;" style="vsdxID=101;edgeStyle=none;startArrow=none;endArrow=block;startSize=5;endSize=5;strokeColor=#5692c9;spacingTop=0;spacingBottom=0;spacingLeft=0;spacingRight=0;verticalAlign=middle;html=1;labelBackgroundColor=#ffffff;rounded=0;align=center;exitX=0.5256410256410257;exitY=1;exitDx=0;exitDy=0;exitPerimeter=0;entryX=0.5128205128205128;entryY=0;entryDx=0;entryDy=0;entryPerimeter=0;" parent="K1N2eHfGFBSvupe56bbP-1" source="trx64rmi2RG5KkpJ9nGh-14" target="trx64rmi2RG5KkpJ9nGh-16" edge="1">
          <mxGeometry relative="1" as="geometry">
            <mxPoint x="9" y="-1" as="offset" />
            <Array as="points">
              <mxPoint x="606" y="497.18" />
              <mxPoint x="606.29" y="497.18" />
            </Array>
          </mxGeometry>
        </mxCell>
        <mxCell id="trx64rmi2RG5KkpJ9nGh-56" style="vsdxID=45;edgeStyle=none;startArrow=none;endArrow=block;startSize=5;endSize=5;strokeColor=#5692c9;spacingTop=0;spacingBottom=0;spacingLeft=0;spacingRight=0;verticalAlign=middle;html=1;labelBackgroundColor=#ffffff;rounded=0;entryX=0;entryY=0.391304347826087;entryDx=0;entryDy=0;entryPerimeter=0;" parent="K1N2eHfGFBSvupe56bbP-1" source="trx64rmi2RG5KkpJ9nGh-3" target="trx64rmi2RG5KkpJ9nGh-10" edge="1">
          <mxGeometry relative="1" as="geometry">
            <mxPoint as="offset" />
            <Array as="points" />
            <mxPoint x="348" y="503" as="sourcePoint" />
          </mxGeometry>
        </mxCell>
        <mxCell id="trx64rmi2RG5KkpJ9nGh-57" style="vsdxID=44;edgeStyle=none;startArrow=none;endArrow=block;startSize=5;endSize=5;strokeColor=#5692c9;spacingTop=0;spacingBottom=0;spacingLeft=0;spacingRight=0;verticalAlign=middle;html=1;labelBackgroundColor=#ffffff;rounded=0;exitX=0.981;exitY=0.552;exitDx=0;exitDy=0;exitPerimeter=0;entryX=0;entryY=0.4782608695652174;entryDx=0;entryDy=0;entryPerimeter=0;" parent="K1N2eHfGFBSvupe56bbP-1" source="trx64rmi2RG5KkpJ9nGh-2" target="trx64rmi2RG5KkpJ9nGh-9" edge="1">
          <mxGeometry relative="1" as="geometry">
            <mxPoint as="offset" />
            <Array as="points" />
            <mxPoint x="348" y="454" as="sourcePoint" />
          </mxGeometry>
        </mxCell>
        <mxCell id="trx64rmi2RG5KkpJ9nGh-60" value="&lt;font style=&quot;font-size:11px;font-family:SimSun;color:#000000;direction:ltr;letter-spacing:0px;line-height:120%;opacity:1&quot;&gt;TSP&lt;br/&gt;&lt;/font&gt;" style="verticalAlign=middle;align=center;vsdxID=130;fillColor=#FFCE9F;gradientColor=none;shape=stencil(nZBLDoAgDERP0z3SIyjew0SURgSD+Lu9kMZoXLhwN9O+tukAlrNpJg1SzDH4QW/URgNYgZTkjA4UkwJUgGXng+6DX1zLfmoymdXo17xh5zmRJ6Q42BWCfc2oJfdAr+Yv+AP9Cb7OJ3H/2JG1HNGz/84klThPVCc=);strokeColor=#000000;labelBackgroundColor=none;rounded=0;html=1;whiteSpace=wrap;" parent="K1N2eHfGFBSvupe56bbP-1" vertex="1">
          <mxGeometry x="647" y="810" width="291.5" height="23" as="geometry" />
        </mxCell>
        <mxCell id="trx64rmi2RG5KkpJ9nGh-61" value="&lt;font style=&quot;font-size:11px;font-family:SimSun;color:#000000;direction:ltr;letter-spacing:0px;line-height:120%;opacity:1&quot;&gt;场景大脑车端应用&lt;br/&gt;&lt;/font&gt;" style="verticalAlign=middle;align=center;vsdxID=131;fillColor=#73ae42;gradientColor=none;shape=stencil(nZBLDoAgDERP0z3SIyjew0SURgSD+Lu9kMZoXLhwN9O+tukAlrNpJg1SzDH4QW/URgNYgZTkjA4UkwJUgGXng+6DX1zLfmoymdXo17xh5zmRJ6Q42BWCfc2oJfdAr+Yv+AP9Cb7OJ3H/2JG1HNGz/84klThPVCc=);strokeColor=#000000;labelBackgroundColor=none;rounded=0;html=1;whiteSpace=wrap;" parent="K1N2eHfGFBSvupe56bbP-1" vertex="1">
          <mxGeometry x="836" y="860" width="67" height="43" as="geometry" />
        </mxCell>
        <mxCell id="trx64rmi2RG5KkpJ9nGh-62" value="" style="vsdxID=158;edgeStyle=none;startArrow=none;endArrow=none;startSize=5;endSize=5;strokeColor=#5692c9;spacingTop=0;spacingBottom=0;spacingLeft=0;spacingRight=0;verticalAlign=middle;html=1;labelBackgroundColor=#ffffff;rounded=0;align=center;" parent="K1N2eHfGFBSvupe56bbP-1" target="trx64rmi2RG5KkpJ9nGh-61" edge="1">
          <mxGeometry relative="1" as="geometry">
            <mxPoint x="-1" y="-29" as="offset" />
            <Array as="points" />
            <mxPoint x="879" y="900" as="sourcePoint" />
            <mxPoint x="831.3644067796611" y="823" as="targetPoint" />
          </mxGeometry>
        </mxCell>
        <mxCell id="xuV5SUcjPrQaPgsYNoyn-0" value="&lt;font style=&quot;font-size: 11px ; font-family: &amp;#34;simsun&amp;#34; ; color: #000000 ; direction: ltr ; letter-spacing: 0px ; line-height: 120% ; opacity: 1&quot;&gt;模型文件&lt;/font&gt;&lt;font style=&quot;font-size: 11px ; font-family: &amp;#34;calibri&amp;#34; ; color: #000000 ; direction: ltr ; letter-spacing: 0px ; line-height: 120% ; opacity: 1&quot;&gt;&lt;br&gt;&lt;/font&gt;" style="verticalAlign=middle;align=center;vsdxID=106;fillColor=#73ae42;gradientColor=none;shape=stencil(nZBLDoAgDERP0z3SIyjew0SURgSD+Lu9kMZoXLhwN9O+tukAlrNpJg1SzDH4QW/URgNYgZTkjA4UkwJUgGXng+6DX1zLfmoymdXo17xh5zmRJ6Q42BWCfc2oJfdAr+Yv+AP9Cb7OJ3H/2JG1HNGz/84klThPVCc=);strokeColor=#ffffff;labelBackgroundColor=none;rounded=0;html=1;whiteSpace=wrap;" parent="K1N2eHfGFBSvupe56bbP-1" vertex="1">
          <mxGeometry x="664" y="778" width="55" height="15" as="geometry" />
        </mxCell>
      </root>
    </mxGraphModel>
  </diagram>
</mxfile>
